<?xml version="1.0" encoding="utf-8"?>
<!-- Generator: Adobe Illustrator 15.0.0, SVG Export Plug-In . SVG Version: 6.00 Build 0)  -->
<!DOCTYPE svg PUBLIC "-//W3C//DTD SVG 1.1 Tiny//EN" "http://www.w3.org/Graphics/SVG/1.1/DTD/svg11-tiny.dtd">
<svg version="1.1" baseProfile="tiny" id="Layer_1" xmlns="http://www.w3.org/2000/svg" xmlns:xlink="http://www.w3.org/1999/xlink"
	 x="0px" y="0px" width="189px" height="136px" viewBox="0 0 189 136" overflow="inherit" xml:space="preserve">
<g>
	<path fill="#424346" d="M101.491,3.184h32.551v129.342h-32.551v-13.67c-6.355,6.022-12.727,10.361-19.117,13.017
		c-6.39,2.655-13.316,3.981-20.782,3.981c-16.751,0-31.242-6.478-43.47-19.436C5.896,103.459-0.218,87.352-0.218,68.092
		c0-19.973,5.916-36.338,17.747-49.097C29.357,6.236,43.729-0.146,60.64-0.146c7.781,0,15.085,1.468,21.911,4.399
		c6.83,2.934,13.142,7.331,18.94,13.197V3.184z M67.272,29.813c-10.063,0-18.421,3.548-25.076,10.64
		c-6.655,7.094-9.981,16.188-9.981,27.283c0,11.175,3.385,20.37,10.158,27.58c6.773,7.214,15.113,10.817,25.015,10.817
		c10.222,0,18.699-3.546,25.432-10.64c6.733-7.091,10.102-16.384,10.102-27.876c0-11.255-3.368-20.368-10.102-27.344
		C86.087,33.301,77.57,29.813,67.272,29.813z"/>
	<path fill="#3291E9" d="M170.063,98.646c5.165,0,9.578,1.804,13.234,5.407c3.656,3.608,5.484,7.986,5.484,13.138
		c0,5.152-1.828,9.552-5.484,13.195c-3.656,3.645-8.069,5.468-13.234,5.468c-5.168,0-9.58-1.823-13.237-5.468
		c-3.655-3.644-5.483-8.043-5.483-13.195c0-5.151,1.828-9.529,5.483-13.138C160.483,100.45,164.896,98.646,170.063,98.646z"/>
</g>
</svg>
