<?xml version="1.0" encoding="utf-8"?>
<!-- Generator: Adobe Illustrator 15.0.0, SVG Export Plug-In . SVG Version: 6.00 Build 0)  -->
<!DOCTYPE svg PUBLIC "-//W3C//DTD SVG 1.1//EN" "http://www.w3.org/Graphics/SVG/1.1/DTD/svg11.dtd">
<svg version="1.1" id="Layer_1" xmlns="http://www.w3.org/2000/svg" xmlns:xlink="http://www.w3.org/1999/xlink" x="0px" y="0px"
	 width="145px" height="27px" viewBox="-7.5 -1.5 145 27" enable-background="new -7.5 -1.5 145 27" xml:space="preserve">
<g>
	<path fill="#424346" d="M7.543-1h4.814v19.403H7.543v-2.05c-0.939,0.903-1.883,1.554-2.827,1.952
		c-0.946,0.399-1.97,0.598-3.074,0.598c-2.478,0-4.621-0.972-6.43-2.914C-6.595,14.042-7.5,11.625-7.5,8.738
		c0-2.997,0.875-5.452,2.625-7.365C-3.125-0.542-1-1.5,1.501-1.5c1.151,0,2.231,0.219,3.242,0.66c1.009,0.441,1.942,1.1,2.8,1.98V-1
		z M2.483,2.995c-1.488,0-2.725,0.533-3.709,1.597C-2.209,5.655-2.703,7.02-2.703,8.684c0,1.676,0.501,3.056,1.503,4.137
		c1.001,1.082,2.235,1.622,3.699,1.622c1.512,0,2.765-0.531,3.761-1.596s1.494-2.458,1.494-4.181c0-1.688-0.498-3.056-1.494-4.102
		C5.265,3.518,4.005,2.995,2.483,2.995z"/>
	<path fill="#424346" d="M19.838-1v2.142c0.87-0.88,1.81-1.541,2.821-1.98s2.092-0.659,3.246-0.659c2.504,0,4.632,0.956,6.384,2.871
		c1.752,1.914,2.627,4.369,2.627,7.365c0,2.889-0.905,5.306-2.716,7.25c-1.811,1.943-3.956,2.914-6.437,2.914
		c-1.105,0-2.135-0.198-3.086-0.598c-0.953-0.398-1.9-1.049-2.839-1.952V25.5H15.06V-1H19.838z M24.899,2.995
		c-1.517,0-2.775,0.523-3.774,1.57c-1,1.046-1.5,2.414-1.5,4.102c0,1.724,0.5,3.117,1.5,4.181c0.999,1.064,2.257,1.596,3.774,1.596
		c1.47,0,2.708-0.54,3.712-1.622c1.005-1.081,1.508-2.461,1.508-4.137c0-1.664-0.494-3.029-1.481-4.093
		C27.651,3.527,26.404,2.995,24.899,2.995z"/>
	<path fill="#424346" d="M41.514-1v2.142c0.871-0.88,1.811-1.541,2.822-1.98c1.01-0.44,2.092-0.659,3.245-0.659
		c2.504,0,4.632,0.956,6.384,2.871c1.751,1.914,2.628,4.369,2.628,7.365c0,2.889-0.906,5.306-2.716,7.25
		c-1.811,1.943-3.956,2.914-6.437,2.914c-1.105,0-2.134-0.198-3.086-0.598c-0.953-0.398-1.899-1.049-2.84-1.952V25.5h-4.778V-1
		H41.514z M46.576,2.995c-1.516,0-2.775,0.523-3.773,1.57c-0.999,1.046-1.499,2.414-1.499,4.102c0,1.724,0.5,3.117,1.499,4.181
		c1,1.064,2.258,1.596,3.773,1.596c1.47,0,2.707-0.54,3.713-1.622c1.006-1.081,1.508-2.461,1.508-4.137
		c0-1.664-0.494-3.029-1.482-4.093S48.081,2.995,46.576,2.995z"/>
	<path fill="#424346" d="M58.395-1h4.867v9.346c0,1.821,0.124,3.083,0.372,3.79c0.248,0.706,0.646,1.256,1.193,1.649
		c0.547,0.394,1.223,0.589,2.023,0.589s1.482-0.193,2.042-0.579c0.56-0.388,0.976-0.955,1.246-1.703
		c0.201-0.558,0.3-1.753,0.3-3.584V-1h4.815v8.222c0,3.389-0.265,5.707-0.793,6.957c-0.646,1.522-1.6,2.689-2.858,3.505
		c-1.258,0.813-2.857,1.22-4.797,1.22c-2.104,0-3.807-0.476-5.105-1.427c-1.299-0.951-2.214-2.275-2.743-3.978
		c-0.376-1.175-0.564-3.315-0.564-6.419V-1H58.395z"/>
	<path fill="#424346" d="M86.932-1.5c1.812,0,3.513,0.458,5.106,1.375c1.594,0.916,2.836,2.157,3.729,3.727s1.341,3.264,1.341,5.083
		c0,1.831-0.449,3.544-1.349,5.135c-0.899,1.593-2.126,2.84-3.677,3.738c-1.554,0.896-3.264,1.345-5.133,1.345
		c-2.751,0-5.1-0.989-7.045-2.97c-1.946-1.979-2.919-4.382-2.919-7.212c0-3.032,1.098-5.559,3.298-7.579
		C82.21-0.619,84.427-1.5,86.932-1.5z M87.012,3.083c-1.497,0-2.743,0.527-3.737,1.579c-0.995,1.053-1.492,2.398-1.492,4.04
		c0,1.689,0.491,3.056,1.476,4.102c0.982,1.046,2.229,1.569,3.736,1.569s2.762-0.528,3.763-1.588
		c1.002-1.057,1.503-2.418,1.503-4.083s-0.491-3.017-1.476-4.057C89.798,3.605,88.541,3.083,87.012,3.083z"/>
	<path fill="#424346" d="M98.855-1h4.867v9.346c0,1.821,0.124,3.083,0.371,3.79c0.247,0.706,0.646,1.256,1.194,1.649
		c0.548,0.394,1.222,0.589,2.022,0.589c0.802,0,1.483-0.193,2.043-0.579c0.561-0.388,0.977-0.955,1.246-1.703
		c0.201-0.558,0.301-1.753,0.301-3.584V-1h4.814v8.222c0,3.389-0.264,5.707-0.793,6.957c-0.646,1.522-1.599,2.689-2.857,3.505
		c-1.258,0.813-2.857,1.22-4.795,1.22c-2.105,0-3.809-0.476-5.106-1.427c-1.299-0.951-2.214-2.275-2.743-3.978
		c-0.375-1.175-0.564-3.315-0.564-6.419V-1L98.855-1z"/>
	<path fill="#424346" d="M130.126,1.711l-2.98,3.014c-1.211-1.213-2.309-1.819-3.298-1.819c-0.54,0-0.963,0.116-1.27,0.348
		c-0.306,0.233-0.459,0.521-0.459,0.865c0,0.26,0.097,0.502,0.293,0.722c0.193,0.22,0.672,0.52,1.436,0.9l1.765,0.892
		c1.856,0.927,3.133,1.873,3.827,2.836c0.693,0.963,1.04,2.092,1.04,3.389c0,1.724-0.626,3.162-1.879,4.314
		c-1.252,1.152-2.93,1.729-5.035,1.729c-2.799,0-5.032-1.104-6.701-3.316l2.963-3.263c0.564,0.667,1.226,1.203,1.983,1.614
		c0.759,0.41,1.433,0.614,2.021,0.614c0.635,0,1.147-0.153,1.535-0.464c0.388-0.309,0.581-0.666,0.581-1.069
		c0-0.75-0.699-1.48-2.099-2.194l-1.622-0.82c-3.104-1.581-4.656-3.562-4.656-5.939c0-1.533,0.585-2.844,1.755-3.932
		s2.665-1.631,4.487-1.631c1.246,0,2.418,0.276,3.519,0.829C128.431-0.117,129.362,0.678,130.126,1.711z"/>
	<path fill="#3291E9" d="M134.731,13.321c0.765,0,1.417,0.27,1.956,0.812c0.541,0.539,0.812,1.198,0.812,1.97
		c0,0.773-0.271,1.432-0.812,1.979c-0.54,0.547-1.192,0.82-1.956,0.82c-0.765,0-1.417-0.273-1.957-0.82
		c-0.542-0.547-0.812-1.205-0.812-1.979s0.271-1.431,0.812-1.97C133.315,13.591,133.967,13.321,134.731,13.321z"/>
</g>
</svg>
