<?xml version="1.0" encoding="utf-8"?>
<!-- Generator: Adobe Illustrator 15.0.0, SVG Export Plug-In . SVG Version: 6.00 Build 0)  -->
<!DOCTYPE svg PUBLIC "-//W3C//DTD SVG 1.1 Tiny//EN" "http://www.w3.org/Graphics/SVG/1.1/DTD/svg11-tiny.dtd">
<svg version="1.1" baseProfile="tiny" id="Layer_1" xmlns="http://www.w3.org/2000/svg" xmlns:xlink="http://www.w3.org/1999/xlink"
	 x="0px" y="0px" width="309px" height="266px" viewBox="0 0 309 266" overflow="inherit" xml:space="preserve">
<g>
	<g>
		<g>
			<path fill="#424346" d="M59.933,140.781H37.265c-2.479,0-4.497-2.017-4.497-4.496c0-2.48,2.019-4.497,4.497-4.497h22.668
				c2.479,0,4.497,2.017,4.497,4.497C64.43,138.765,62.411,140.781,59.933,140.781z M37.265,135.229
				c-0.583,0-1.057,0.474-1.057,1.057s0.474,1.057,1.057,1.057h22.668c0.582,0,1.058-0.474,1.058-1.057s-0.476-1.057-1.058-1.057
				H37.265z"/>
		</g>
		<g>
			<path fill="#424346" d="M55.711,144.089H41.486c-1.909,0-3.463-1.506-3.463-3.357c0-1.851,1.554-3.355,3.463-3.355h14.225
				c1.909,0,3.463,1.505,3.463,3.355C59.174,142.583,57.62,144.089,55.711,144.089z"/>
		</g>
		<g>
			<path fill="#424346" d="M59.933,135.342H37.265c-2.479,0-4.497-2.018-4.497-4.497c0-2.479,2.019-4.496,4.497-4.496h22.668
				c2.479,0,4.497,2.018,4.497,4.496C64.43,133.324,62.411,135.342,59.933,135.342z M37.265,129.789
				c-0.583,0-1.057,0.473-1.057,1.056s0.474,1.057,1.057,1.057h22.668c0.582,0,1.058-0.474,1.058-1.057s-0.476-1.056-1.058-1.056
				H37.265z"/>
		</g>
		<g>
			<path fill="#424346" d="M59.933,129.9H37.265c-2.479,0-4.497-2.017-4.497-4.496s2.019-4.498,4.497-4.498h22.668
				c2.479,0,4.497,2.019,4.497,4.498S62.411,129.9,59.933,129.9z M37.265,124.347c-0.583,0-1.057,0.475-1.057,1.058
				s0.474,1.057,1.057,1.057h22.668c0.582,0,1.058-0.474,1.058-1.057s-0.476-1.058-1.058-1.058H37.265z"/>
		</g>
		<g>
			<path fill="#424346" d="M61.031,124.532l-15.033-0.021l-9.685,0.021l-0.298-1.354c-1.918-8.718-4.445-13.566-6.89-18.255
				c-0.674-1.292-1.311-2.512-1.935-3.811c-0.587-1.223-1.147-2.329-1.646-3.318c-0.521-1.028-0.975-1.93-1.333-2.7
				c-2.706-4.957-3.969-9.479-3.969-14.222c0-15.135,12.721-27.448,28.354-27.448c15.635,0,28.355,12.313,28.355,27.448
				c0,4.617-1.208,9.183-3.495,13.209c-0.675,1.476-1.788,3.876-3.306,7.03c-0.624,1.3-1.261,2.52-1.934,3.812
				c-2.444,4.688-4.974,9.536-6.891,18.255L61.031,124.532z M45.994,121.07l12.284,0.016c1.982-8.341,4.583-13.327,6.89-17.752
				c0.661-1.268,1.284-2.464,1.884-3.712c1.529-3.179,2.645-5.584,3.31-7.04l0.071-0.139c2.016-3.524,3.081-7.526,3.081-11.57
				c0-13.239-11.177-24.009-24.916-24.009c-13.737,0-24.913,10.77-24.913,24.009c0,4.16,1.135,8.17,3.572,12.621l0.054,0.104
				c0.347,0.751,0.794,1.636,1.305,2.646c0.509,1.006,1.078,2.134,1.676,3.378c0.601,1.248,1.225,2.445,1.885,3.712
				c2.309,4.426,4.907,9.411,6.891,17.752L45.994,121.07z"/>
		</g>
		<g>
			<path fill="#424346" d="M45.435,122.95c-0.358,0-0.692-0.225-0.814-0.583c-0.3-0.879-7.332-21.609-7.1-26.031
				c0.025-0.475,0.435-0.848,0.904-0.813c0.475,0.024,0.839,0.429,0.813,0.904c-0.179,3.396,5,19.478,7.01,25.386
				c0.153,0.451-0.087,0.938-0.537,1.092C45.619,122.937,45.525,122.95,45.435,122.95z"/>
		</g>
		<g>
			<path fill="#424346" d="M51.862,122.95c-0.092,0-0.186-0.014-0.277-0.046c-0.449-0.153-0.69-0.641-0.536-1.092
				c2.009-5.908,7.187-21.99,7.009-25.386c-0.024-0.476,0.34-0.88,0.813-0.904c0.496-0.034,0.879,0.339,0.904,0.813
				c0.232,4.422-6.8,25.152-7.1,26.031C52.554,122.726,52.22,122.95,51.862,122.95z"/>
		</g>
		<g>
			<path fill="#424346" d="M13.78,72.101c-0.175,0-0.35-0.052-0.502-0.161l-12.92-9.294c-0.386-0.277-0.474-0.815-0.196-1.2
				c0.276-0.386,0.814-0.474,1.201-0.196l12.919,9.294c0.387,0.277,0.475,0.814,0.196,1.2C14.311,71.977,14.047,72.101,13.78,72.101
				z"/>
		</g>
		<g>
			<path fill="#424346" d="M27.986,54.067c-0.298,0-0.588-0.154-0.746-0.432l-7.926-13.802c-0.237-0.412-0.095-0.937,0.317-1.175
				c0.411-0.234,0.938-0.093,1.175,0.318l7.926,13.802c0.235,0.412,0.093,0.938-0.318,1.175
				C28.279,54.031,28.131,54.067,27.986,54.067z"/>
		</g>
		<g>
			<path fill="#424346" d="M83.479,72.101c-0.269,0-0.531-0.124-0.699-0.357c-0.277-0.386-0.19-0.923,0.195-1.2l12.921-9.294
				c0.387-0.277,0.923-0.189,1.201,0.196c0.276,0.385,0.188,0.923-0.196,1.2l-12.921,9.294
				C83.827,72.049,83.652,72.101,83.479,72.101z"/>
		</g>
		<g>
			<path fill="#424346" d="M69.676,53.548c-0.145,0-0.293-0.037-0.428-0.115c-0.411-0.236-0.554-0.763-0.318-1.174l7.927-13.802
				c0.235-0.413,0.763-0.555,1.174-0.317c0.413,0.236,0.555,0.762,0.318,1.174l-7.926,13.802
				C70.264,53.393,69.974,53.548,69.676,53.548z"/>
		</g>
		<g>
			<path fill="#424346" d="M48.458,47.908c-0.474,0-0.859-0.384-0.859-0.859l-0.012-15.915c0-0.475,0.386-0.86,0.859-0.86h0.001
				c0.475,0,0.86,0.384,0.86,0.858l0.012,15.916C49.319,47.523,48.935,47.908,48.458,47.908L48.458,47.908z"/>
		</g>
	</g>
	<g>
		<g>
			<path fill="#424346" d="M291.988,82.392h-72.074c-2.3,0-4.171-1.851-4.171-4.126V29.108c0-2.275,1.871-4.126,4.171-4.126h1.895
				v3.44h-1.895c-0.403,0-0.73,0.307-0.73,0.686v49.157c0,0.377,0.327,0.686,0.73,0.686h72.074c0.404,0,0.732-0.309,0.732-0.686
				v-2.244h3.439v2.244C296.16,80.541,294.289,82.392,291.988,82.392z"/>
		</g>
		<g>
			<path fill="#424346" d="M250.136,68.811h-15.192c-2.372,0-4.301-1.93-4.301-4.3v-30.96c0-2.371,1.929-4.301,4.301-4.301h15.192
				c2.371,0,4.301,1.93,4.301,4.301v30.96C254.437,66.881,252.507,68.811,250.136,68.811z M234.943,30.971
				c-1.423,0-2.581,1.156-2.581,2.58v30.96c0,1.423,1.158,2.58,2.581,2.58h15.192c1.423,0,2.58-1.157,2.58-2.58v-30.96
				c0-1.424-1.157-2.58-2.58-2.58H234.943z"/>
		</g>
		<g>
			<path fill="#424346" d="M250.71,63.433h-16.627v-28.34h16.627V63.433z M235.803,61.711h13.186V36.812h-13.186V61.711z"/>
		</g>
		<g>
			<path fill="#424346" d="M295.884,32.218v40.808h-70.613V24.692h45.098l3.398-3.439H224.46c-1.452,0-2.63,1.178-2.63,2.63v49.951
				c0,1.454,1.178,2.632,2.63,2.632h72.235c1.45,0,2.629-1.178,2.629-2.632V28.783L295.884,32.218z"/>
		</g>
		<g>
			<g>
				<path fill="#424346" d="M261.273,49.892l3.501-15.683l30.352-30.354c0.976-0.974,2.272-1.511,3.65-1.511
					s2.674,0.537,3.648,1.511l5.067,5.067c2.011,2.013,2.011,5.287,0,7.299l-30.363,30.362L261.273,49.892z M267.914,35.935
					l-2.12,9.5l9.629-2.01l29.637-29.637c0.67-0.672,0.67-1.762-0.001-2.433l-5.066-5.068c-0.652-0.649-1.785-0.649-2.433,0.001
					L267.914,35.935z"/>
			</g>
			<g>
				
					<rect x="290.634" y="13.209" transform="matrix(0.707 0.7072 -0.7072 0.707 97.5625 -205.643)" fill="#424346" width="12.685" height="3.44"/>
			</g>
			<g>
				
					<rect x="286.77" y="17.108" transform="matrix(0.7071 0.7071 -0.7071 0.7071 98.6082 -202.1415)" fill="#424346" width="13.117" height="1.721"/>
			</g>
			<g>
				
					<rect x="267.767" y="36.113" transform="matrix(0.7071 0.7071 -0.7071 0.7071 106.503 -183.1567)" fill="#424346" width="13.115" height="1.719"/>
			</g>
		</g>
	</g>
	<g>
		<g>
			<path fill="#424346" d="M240.249,207.776v54.783h-79.667v-54.783H240.249 M240.751,204.337h-80.673
				c-1.62,0-2.937,1.315-2.937,2.938v55.787c0,1.622,1.316,2.938,2.937,2.938h80.673c1.622,0,2.938-1.316,2.938-2.938v-55.787
				C243.689,205.652,242.373,204.337,240.751,204.337L240.751,204.337z"/>
		</g>
		<g>
			<path fill="#424346" d="M241.311,216.154h-81.698c-0.476,0-0.86-0.385-0.86-0.859c0-0.477,0.385-0.86,0.86-0.86h81.698
				c0.476,0,0.859,0.384,0.859,0.86C242.17,215.77,241.786,216.154,241.311,216.154z"/>
		</g>
		<g>
			<circle fill="#424346" cx="164.073" cy="211.096" r="1.616"/>
		</g>
		<g>
			<circle fill="#424346" cx="168.319" cy="211.096" r="1.616"/>
		</g>
		<g>
			<circle fill="#424346" cx="172.565" cy="211.096" r="1.616"/>
		</g>
		<g>
			<path fill="#424346" d="M164.288,225.801c-0.22,0-0.44-0.083-0.607-0.252c-0.336-0.335-0.336-0.88,0-1.215l1.881-1.883
				l-1.881-1.881c-0.336-0.335-0.336-0.88,0-1.216c0.335-0.335,0.88-0.335,1.215,0l2.49,2.489c0.336,0.336,0.336,0.88,0,1.217
				l-2.49,2.488C164.729,225.718,164.509,225.801,164.288,225.801z"/>
		</g>
	</g>
	<g>
		<g>
			<path fill="#358EF1" d="M81.527,53.828l-1.328-1.093c22.979-27.914,56.876-43.924,92.994-43.924
				c13.119,0,26.022,2.098,38.347,6.235l-0.547,1.631c-12.147-4.078-24.865-6.146-37.8-6.146
				C137.591,10.532,104.18,26.312,81.527,53.828z"/>
		</g>
		<g>
			<path fill="#358EF1" d="M196.73,26.686c-0.282,0-0.561-0.139-0.724-0.394c-0.258-0.399-0.143-0.932,0.256-1.189l14.453-9.322
				l-9.322-14.453c-0.258-0.4-0.143-0.933,0.257-1.188c0.398-0.26,0.931-0.145,1.188,0.256l9.79,15.177
				c0.124,0.189,0.166,0.423,0.118,0.646c-0.048,0.223-0.182,0.417-0.374,0.541l-15.178,9.79
				C197.052,26.641,196.891,26.686,196.73,26.686z"/>
		</g>
	</g>
	<g>
		<g>
			<path fill="#358EF1" d="M252.186,218.939l-1.122-1.304c9.715-8.353,17.995-18.226,24.609-29.343
				c18.203-30.597,21.726-67.379,9.661-100.916l1.619-0.584c12.237,34.023,8.666,71.34-9.802,102.381
				C270.441,200.449,262.041,210.465,252.186,218.939z"/>
		</g>
		<g>
			<path fill="#358EF1" d="M251.147,219.608c-0.46,0-0.842-0.364-0.858-0.829l-0.652-18.048c-0.018-0.475,0.353-0.874,0.828-0.891
				c0.485-0.044,0.873,0.353,0.89,0.828l0.621,17.189l17.189-0.622c0.486-0.042,0.873,0.352,0.891,0.827
				c0.018,0.475-0.354,0.874-0.828,0.891l-18.049,0.653C251.169,219.608,251.158,219.608,251.147,219.608z"/>
		</g>
	</g>
	<g>
		<g>
			<path fill="#358EF1" d="M151.85,247.257c-35.557-6.557-65.997-28.432-83.517-60.018c-6.365-11.476-10.789-23.775-13.147-36.56
				l1.69-0.312c2.325,12.6,6.686,24.724,12.96,36.036c17.271,31.135,47.276,52.698,82.326,59.16L151.85,247.257z"/>
		</g>
		<g>
			<path fill="#358EF1" d="M47.35,166.663c-0.138,0-0.276-0.033-0.405-0.102c-0.42-0.225-0.577-0.746-0.354-1.164l8.524-15.922
				c0.223-0.419,0.744-0.577,1.163-0.354l15.922,8.522c0.419,0.225,0.578,0.747,0.353,1.164c-0.225,0.421-0.743,0.578-1.164,0.354
				l-15.163-8.117l-8.118,15.164C47.953,166.498,47.656,166.663,47.35,166.663z"/>
		</g>
	</g>
</g>
</svg>
