<?xml version="1.0" encoding="utf-8"?>
<!-- Generator: Adobe Illustrator 15.0.0, SVG Export Plug-In . SVG Version: 6.00 Build 0)  -->
<!DOCTYPE svg PUBLIC "-//W3C//DTD SVG 1.1 Tiny//EN" "http://www.w3.org/Graphics/SVG/1.1/DTD/svg11-tiny.dtd">
<svg version="1.1" baseProfile="tiny" id="Layer_1" xmlns="http://www.w3.org/2000/svg" xmlns:xlink="http://www.w3.org/1999/xlink"
	 x="0px" y="0px" width="360px" height="175px" viewBox="0 0 360 175" overflow="inherit" xml:space="preserve">
<g>
	<g>
		<path fill-rule="evenodd" fill="#DDDFE1" d="M137.281,13.362c-0.309-0.48-1.1-0.479-1.692-0.678
			c0.216-0.067,0.046-0.518,0.339-0.507c0.469,0.525,1.249,1.167,2.369,0.762c0.236-0.243,0.16-0.799,0.17-1.269
			c-0.343-0.732-1.38-0.767-1.862-1.355c0.637-0.542,1.664-0.136,2.622-0.338c0.265-0.057,1.695-0.869,1.861-1.017
			c0.136-0.121,0.145-0.444,0.253-0.592c0.334-0.455,0.662-0.441,0.678-0.848c0.018-0.466-0.438-0.617-0.508-1.101
			c0.779-0.036,1.589-0.046,1.438-1.014c-0.18-0.272-0.586-0.318-0.847-0.509c0.593-0.142,0.869-0.599,1.27-0.932
			c0.894-0.044,1.6-0.735,2.538-1.016c1.309-0.391,2.815-0.188,3.384-1.185c-1.784-0.497-4.378-0.441-6.429-0.253
			c0.069-0.179,0.347-0.331,0.169-0.509c-2.3-0.78-4.771-1.181-7.444-0.931c-0.813,0.075-1.62,0.396-2.451,0.423
			c-1.306,0.043-2.595-0.185-3.893-0.085c-1.15,0.089-2.287,0.498-3.467,0.593c-1.957,0.156-3.88-0.051-5.752,0.085
			c-0.687,0.049-1.392,0.363-2.115,0.424c-0.644,0.053-1.34-0.087-1.945,0c-0.523,0.072-0.955,0.397-1.438,0.507
			c-1.684,0.381-3.386,0.552-4.907,1.016c-0.286,0.266,0.312,0.471,0.085,0.677c-1.956,0.384-4.031,0.649-6.175,0.847
			c-0.062,0.91,0.561,1.086,0.424,1.861c2.268,1.55,8.504-0.921,8.204,3.218c-0.058,0.792-0.662,1.19-0.592,2.032
			c0.847,0.295,2.413-0.079,2.283,1.014c-0.554-0.038-1.004-0.18-1.606-0.169c-0.302,0.846,0.639,1.084,0.76,1.778
			c-0.367,0.502-0.954,0.271-1.437,0.424c-1.336,0.418-2.034,1.922-1.861,3.47c0.055,0.342,0.363,0.427,0.339,0.847
			c-0.497,1.927,0.58,3.615,1.438,4.738c1.98-1.021,2.266,1.31,3.638,1.101c0.372-0.056,0.776-0.61,1.183-1.016
			c0.618-0.615,1.291-0.979,1.185-1.946c1.928-0.103,1.865-2.861,3.469-3.302c0.805-0.219,1.636,0.117,2.114-0.677
			c0.224-0.026-0.08,0.475,0.253,0.339c2.706-0.17,4.222-1.531,5.836-2.793c0.848,0.544,1.743,0.036,2.877-0.169
			c1.841-0.332,3.044-0.933,4.314-1.439C136.712,13.726,137.186,13.899,137.281,13.362z"/>
		<path fill-rule="evenodd" fill="#DDDFE1" d="M96.681,2.951c-0.318,0.076-0.576,0.215-0.763,0.424
			c-0.17,0.376,0.497,0.341,0.255,0.508c-0.937,0.67-2.031,1.184-3.807,1.016c-0.711,1.066-3.137,0.416-3.552,1.777
			c1.484,0.549,3.145-0.094,4.651-0.084C94.729,6.6,95.961,7,97.104,6.507c0.213-0.154,0.178-0.556,0.423-0.679
			c0.828-0.55,1.843-0.457,2.876-0.761c0.646-0.188,1.192-0.576,1.775-0.763c0.726-0.229,1.438-0.201,2.284-0.338
			c1.053-0.168,2.067-0.641,3.129-0.931c2.358-0.643,4.614-1.112,6.768-1.693c-0.459-0.504-1.26-0.613-1.86-0.677
			c-2.033-0.214-4.209,0.491-6.428,0.255c-0.396-0.042-0.729-0.218-1.101-0.255c-3.953-0.382-7.35,0.876-10.911,1.186
			C94.347,2.805,95.728,2.664,96.681,2.951z"/>
		<path fill-rule="evenodd" fill="#DDDFE1" d="M93.381,4.305c0.806-0.097,1.886,0.097,1.861-0.676
			c-0.605-0.368-1.138-0.895-1.776-1.185c-0.328-0.149-1.379-0.351-1.606-0.254c-1.047,0.442-2.639,0.84-3.384,1.438
			C88.349,6.043,91.988,4.475,93.381,4.305z"/>
		<path fill-rule="evenodd" fill="#DDDFE1" d="M83.823,4.475c-0.795-0.404-2.205-1.204-3.214-0.592
			C80.478,5.299,83.579,5.717,83.823,4.475z"/>
		<path fill-rule="evenodd" fill="#DDDFE1" d="M87.122,4.983c-0.38-0.396-1.85-0.912-2.368-0.339
			C84.501,5.371,87.07,6.376,87.122,4.983z"/>
		<path fill-rule="evenodd" fill="#DDDFE1" d="M75.365,5.067c-0.554-0.443-2.653-0.455-2.707,0.424
			C73.393,5.816,75.189,6.004,75.365,5.067z"/>
		<path fill-rule="evenodd" fill="#DDDFE1" d="M66.146,6.761c1.108-0.274,2.67-0.095,3.215-0.933
			c-0.38-0.294-0.99-0.354-1.522-0.337c-1.861,0.061-4.299,0.364-5.076,1.438C63.881,7.607,65.32,6.965,66.146,6.761z"/>
		<path fill-rule="evenodd" fill="#DDDFE1" d="M83.401,6.337c0.259,0.759,2.29,0.862,2.537,0
			C85.407,5.915,83.768,5.472,83.401,6.337z"/>
		<path fill-rule="evenodd" fill="#DDDFE1" d="M65.892,7.945c0.412,0.431,0.909,0.167,1.606,0.255
			c0.658,0.082,1.539,0.428,2.454,0.422c0.562-0.002,1.2-0.216,1.859-0.253c2.085-0.12,3.528,0.216,3.892-1.271
			c-0.291-0.339-0.986-0.094-1.353,0c0.027-0.336,0.004-0.624-0.17-0.761c-1.246-0.117-1.504,0.751-2.284,1.101
			C71.1,7.079,70.31,6.713,69.613,6.252C68.315,6.761,66.454,6.704,65.892,7.945z"/>
		<path fill-rule="evenodd" fill="#DDDFE1" d="M78.578,7.354c0.456-1.173-1.688-1.489-1.775-0.593
			C76.744,7.362,77.979,7.759,78.578,7.354z"/>
		<path fill-rule="evenodd" fill="#DDDFE1" d="M82.555,6.592c-1.01-0.671-3.849-0.548-3.807,0.93
			C79.842,8.723,82.02,7.537,82.555,6.592z"/>
		<path fill-rule="evenodd" fill="#DDDFE1" d="M85.092,7.861c0.464,0.883,1.665,0.416,2.707,0.508
			c2.607,0.228,6.132,1.331,6.767-1.185c-1.671-0.817-5.506,0.848-6.682-0.764C86.245,5.88,86.077,7.474,85.092,7.861z"/>
		<path fill-rule="evenodd" fill="#DDDFE1" d="M84.078,7.438c-0.938-0.009-1.929-0.066-2.199,0.593
			C82.238,9.021,84.916,8.941,84.078,7.438z"/>
		<path fill-rule="evenodd" fill="#DDDFE1" d="M55.741,12.262c0.197-0.001,0.612-0.322,1.015-0.424
			c0.954-0.238,1.688-0.37,2.454-0.507c-0.036,0.348,0.178,0.441,0.337,0.593c-0.624,0.018-0.185,0.966-0.169,1.016
			c-0.511,0.145-0.986,0.214-1.015,0.678c-0.053,0.919,1.936,0.768,2.453,1.354c2.085,0.48,3.875-0.781,5.667-0.677
			c0.467,0.026,1.026,0.412,1.607,0.508c1.222,0.201,2.624-0.021,2.96-0.762c0.42-0.146,1.048-0.083,1.271-0.423
			c0.216-1.036-0.852-0.786-1.101-1.355c0.198-0.76,0.771-1.146,0.845-2.031c-0.877-1.529-2.608-0.157-3.212,0.762
			c0.436-0.994-1.052-1.268-1.523-0.677c-0.573-0.334-1.396-0.41-2.115-0.169c-0.026-0.664-0.305-0.55-0.338-1.186
			c-0.573-0.587-1.468-0.17-2.368-0.17c-0.21-0.068-0.666-0.591-1.016-0.507c-0.893,0.214-2.544,0.216-3.045,0.423
			c-0.251,0.104-0.619,0.479-0.847,0.593c-0.714,0.358-3.26,0.991-3.298,1.861C54.28,11.686,55.151,12.267,55.741,12.262z"/>
		<path fill-rule="evenodd" fill="#DDDFE1" d="M79.68,10.992c0.607,0.381,1.116-0.229,1.775-0.338c0.484-0.08,1.029,0.101,1.523,0
			c0.497-0.103,0.927-0.573,1.353-0.847c0.337-0.216,0.795-0.161,0.761-0.593c-0.835-0.434-2.296-0.242-3.299-0.508
			C80.922,9.249,79.533,9.713,79.68,10.992z"/>
		<path fill-rule="evenodd" fill="#DDDFE1" d="M74.604,10.062c-0.965,1.053,0.586,1.604,1.27,2.03c1.299-0.398,3.274-0.55,3.045-2.2
			c0.291-0.216,0.681-0.335,0.676-0.846c-0.66-0.565-2.032,0.021-3.128-0.169c-0.384,0.21-0.589,0.597-0.679,1.101
			C75.407,10.201,75.12,10.069,74.604,10.062z"/>
		<path fill-rule="evenodd" fill="#DDDFE1" d="M110.637,109.176c-1.303-0.47-2.146-2.188-3.467-2.709
			c-0.556-0.218-1.181,0.1-1.692,0.084c-1.032-0.029-1.718-0.671-2.875-0.846c-0.312,0.028-0.47,0.208-0.762,0.255
			c-0.068-0.432-0.289-0.985-0.678-1.27c-0.777-0.572-3.002-1.361-3.806-0.932c-0.018-0.265,0.058-0.621-0.084-0.761
			c-0.413-0.097-0.806-0.213-1.355-0.17c-0.021-0.486-0.516-0.498-0.591-0.931c0.28-1.088-0.206-1.366-0.593-2.116
			c-0.527-1.027-0.469-2.011-1.014-2.794c-0.836-0.235-1.212-0.933-1.692-1.523c-1.45-0.438-3.114-0.624-4.736-0.677
			c-0.408-0.466-0.887-0.862-1.438-1.186c-0.269-1.425-1.393-1.991-2.791-2.285c0.088-0.222,0.102-0.52,0.085-0.846
			c-0.164-0.316-0.539-0.422-0.762-0.677c0.688,0.066,0.771-0.472,0.762-1.101c-0.249-0.146-0.591-0.199-1.016-0.169
			c-0.322,0.185-0.062,0.953-0.423,1.1c-0.764-0.188,0.176-0.658-0.085-1.016c-0.521-0.136-1.366,0.086-2.114,0
			c-1.295,1.433-2.823-0.351-4.821-0.169c-0.263-0.573-0.72-1.147-1.607-0.848c-0.076-0.318-0.214-0.575-0.423-0.761
			c-0.41,0.718-1.525,1.181-2.03,1.522c-0.027-0.197-0.102-0.349-0.169-0.506c0.506-0.2,1-0.413,0.931-1.187
			c-0.185-0.268-0.76-0.144-1.184-0.17c-0.542,0.757-1.289,1.307-2.624,1.27c-0.677,0.395-1.375,0.769-1.859,1.355
			c0.047,1.458-1.237,2.035-1.776,2.624c0.252-0.727-1.626-1.637-2.284-1.609c-0.722,0.029-1.306,0.769-2.029,0.848
			c-1.391,0.15-2.183-1.109-2.877-2.201c0.077-2.267,1.26-4.034,1.015-6.094c-0.639-0.009-0.954-0.342-1.184-0.763
			c-1.625-0.635-3.333,0.714-4.821-0.084c0.461-0.443,0.841-0.965,0.762-1.946c0.817-1.043,1.554-2.17,1.606-3.979
			c2.469-2.204-2.783-1.744-3.721-0.847c-0.448,1.117-0.249,2.491-1.185,3.049c-0.969,0.576-2.729-0.191-3.806,0.508
			c-0.245-0.123-0.327-0.408-0.509-0.593c-1.304-0.202-1.903-1.875-2.029-2.964c-0.147-1.271-0.103-2.743,0.169-3.808
			c0.237-0.926,0.965-1.672,1.184-2.709c0.099-0.463-0.074-1.147,0.17-1.691c0.151-0.339,1.112-1.097,1.522-1.355
			c0.578-0.367,1.526-0.577,2.199-0.932c0.604-0.314,1.085-0.781,1.607-0.761c0.295,0.011,0.741,0.396,1.185,0.423
			c0.201,0.013,0.432-0.117,0.592-0.084c0.274,0.058,0.485,0.297,0.761,0.338c0.562,0.084,1.121-0.131,1.776,0.084
			c0.278-0.368-0.164-1.016,0-1.27c1.609,0.303,3.938-1.262,4.483,0.764c0.553-0.068,1.065-0.177,1.437-0.424
			c0.172,0.36,0.767,0.643,0.847,1.185c0.036,0.249-0.142,0.504-0.168,0.762c-0.182,1.68,0.863,3.006,1.437,4.232
			c3.077-0.732,1.044-4.527,1.185-7.279c1.025-1.88,2.66-3.149,4.737-3.979c0.363-0.765,1.237-1.019,2.199-1.185
			c0.211-0.183,0.174-0.615,0.253-0.933c1.512-0.475,1.028-2.492,1.438-3.978c0.1,0.21-0.039,0.66,0.256,0.678
			c0.628-0.328,0.982-0.932,1.268-1.607c0.805-0.436,1.507-0.977,1.775-1.947c1.253-0.835,3.35-0.824,4.484-1.776
			c0.193-0.146,0.031-0.646,0.084-0.933c0.562-1.242,2.244-1.366,3.129-2.285c1.717-0.201,2.871-1.416,4.484-1.438
			c-0.968,0.582-2.156,0.945-2.285,2.37c0.987,0.98,1.574-0.959,2.538-1.187c0.244-0.057,0.56,0.106,0.763,0.086
			c0.82-0.086,1.243-0.743,1.944-0.847c0.262-0.134,0.856,0.068,0.846-0.339c-0.434-0.977-2.347-0.473-2.79-1.438
			c-0.237-1.052,0.128-1.23,0.083-2.031c1.389-0.317,1.332-1.651-0.083-1.777c-1.756-0.157-3.652,1.211-4.314,1.522
			c0.768-1.12,2.395-1.383,3.468-2.199c1.528,0.139,2.828-0.145,3.89-0.17c0.757-0.018,1.436,0.298,2.115,0.254
			c1.803-0.119,2.556-2.001,4.568-1.777c-0.295,0.327-0.644,0.598-1.016,0.846c-0.495,0.777-1.022,1.447-1.606,2.117
			c-0.571,0.653-1.488,1.035-1.776,1.946c0.992,0.364,2.784,0.317,3.722-0.084c0.251,0.329,0.663,0.166,0.591,0.677
			c0.92-0.159,1.045,0.479,1.861,0.424c0.277-0.371,0.697-0.601,0.763-1.186c-0.095-0.245-0.62-0.058-0.679-0.34
			c0.372-0.732,0.327-1.362,0.763-2.03c-0.359-0.79-1.358-0.185-2.031-0.084c-0.446-0.115,0.158-0.817-0.507-0.763
			c0.411-0.45,1.316-1.161,0.931-1.861c0.834-0.267,0.827-1.374,0.93-2.37c-0.208-0.385-0.685-0.501-0.93-0.848
			c-0.013-0.26,0.298-0.381,0.085-0.593c-1.078-0.556-2.401-0.869-2.623-2.283c0.824-1.431-0.623-3.104-0.762-4.656
			c-1.463,0.5-3.559,3.418-4.904,1.184c0.135-0.654,0.477-1.101,0.676-1.69c-0.278-0.457-0.758-0.71-1.354-0.848
			c-0.059-0.844-0.837-0.966-1.269-1.438c-1.304,0.967-3.249-1.115-4.312,0.424c0.051,0.925-0.641,1.107-0.932,1.691
			c0.592,1.844-1.548,1.658-2.029,2.709c1.179,0.75,0.59,2.209-0.339,2.962c-1.06,0.861-2.911,1.143-3.721,1.693
			c0.057,1.129-0.571,1.574-0.509,2.708c-0.293,0.92-1.497,0.928-2.114,1.523c-0.357-0.573-0.79-1.07-0.676-2.115
			c0.502-0.795,0.943-1.651,1.437-2.455c-0.733-0.579-1.646-0.252-2.452-0.423c-0.839-0.178-1.404-0.952-2.198-1.101
			c-0.386-1.21-2.287-1.522-3.47-1.185c0.015-0.722,0.558-1.263,0.424-1.862c-0.18-0.279-0.778-0.065-0.93-0.17
			c1.4-2.083,3.756-4.084,7.02-4.316c0.341-0.338,0.561-0.792,1.27-0.761c0.093-0.402,0.492-0.584,0.761-0.678
			c1.06-0.375,2.248-0.868,3.13-1.439c0.239-0.099,0.152-0.522,0.591-0.423c-0.29,0.866-1.062,1.249-1.521,1.947
			c0.372,0.221,0.654,0.531,1.015,0.762c0.903-0.281,1.474-0.896,2.454-1.101c0.467,0.266,0.812,0.653,1.606,0.592
			c0.792-0.6-0.054-0.845-0.338-1.27c-0.102-0.15-0.008-0.409-0.085-0.592c-0.271-0.637-1.074-0.883-1.184-1.186
			c0.734-0.39,1.309,0.108,1.944,0.086c1.122-0.042,1.744-1.182,2.707-1.524c0.191-0.272-0.074-0.562,0.085-0.762
			c0.572-0.246,1.104-0.533,1.269-1.185c-0.297-0.661-1.103-0.815-1.861-1.017c1.49,0.123,3.868,0.857,5.16,0.085
			c0.508,0.508,1.281,0.75,1.437,1.608c0.532,0.151,1.021,0.232,1.102,0.677c0.229,1.278-2.492,1.396-2.454,2.708
			c-1.721,0.55-4.171-1.09-4.313,1.355c0.964,0.212,2.554,0.395,3.722,0.085c0.622,0.279,0.846,0.958,1.016,1.691
			c1.11,0.513,2.543,1.554,3.976,1.185c-0.018-0.717-0.607-1.309-0.676-1.692c1.069,1.005,3.123,0.646,3.298-0.762
			c0.154-1.256-1.199-1.617-1.523-2.539c0.476-0.09,1.028-0.1,1.607-0.085c0.432,0.664,0.688,1.624,1.438,1.693
			c0.981,0.091,1.736-1.419,2.536-1.778c0.132-2.104-2.049-1.897-3.128-2.791c0.143-0.365,0.693-0.322,0.929-0.593
			c0.136-2.027-1.441-2.339-3.044-2.624c-0.646-0.511-1.435-0.88-2.198-1.271c0.402,0.037,0.719-0.014,0.845-0.253
			c-0.314-0.967-2.005-0.97-3.131-0.847c-0.112,0.762,0.546,1.203,0.678,1.438c-0.45,0-0.902,0-1.354,0
			c0.149-0.381,0.39-0.79,0.085-1.186c-1.727-0.369-3.234,0.202-4.145,0.932c0.254-0.452,1.042-0.368,1.099-1.016
			c-0.91,0.053-2.168-0.202-3.129,0.084c-0.536,0.161-1.129,0.791-1.522,1.101c-0.766,0.603-1.688,1.032-1.269,2.2
			c0.665,0.238,1.151,0.652,1.86,0.848c-0.616,0.787-1.481,1.535-2.368,2.115c-0.362,0.238-1.136,0.924-1.438,0.169
			c0.319-0.384,0.957-0.452,0.846-1.27c-0.065-0.019-0.098-0.071-0.084-0.169c-0.657-0.493-1.248,0.18-1.692,0.424
			c0.136-0.203,0.278-0.399,0.254-0.762c-0.105-0.347-0.601-0.303-0.761-0.592c1.072,0.018,0.878-2.354-0.086-2.287
			c-1.191,0.148-4.79,1.909-2.621,2.964c-0.546,0.808-1.509,1.198-2.452,1.606c-0.067-0.722-1.146-0.434-1.693-0.677
			c-0.308,0.059-0.434,0.3-0.675,0.424c-1.667-0.291-2.895,0.495-4.146,0c-0.398-0.156-0.531-0.612-0.846-0.761
			c-1.03-0.486-1.959,0.149-3.13,0.168c-0.211,0.823-0.951,0.527-1.606,0.509c-1.146-0.033-2.737,0.79-3.808,0.169
			c0.27-0.153,0.769-0.078,0.677-0.593c-0.394-0.749-1.387-0.692-2.453-0.593c-0.926-1.114-2.878-0.862-4.399-1.016
			c-0.417,0.314-0.895,0.528-1.606,0.339c0.078-0.557-0.124-0.836-0.422-1.017c-0.699,0.552-1.672,0.288-2.708,0.34
			c-1.206,0.06-2.639,0.605-3.89,0.677c-1.186,0.066-1.722,0.238-2.454,0.593c-0.539-0.097-0.921-0.613-1.521-0.677
			c-0.235-0.025-0.536,0.129-0.761,0.084c-0.424-0.084-0.68-0.537-1.102-0.677c-0.909-0.304-2.389,0.056-3.635-0.085
			c-0.754-0.085-1.471-0.421-2.116-0.508c-0.393-0.053-0.788,0.05-1.183,0c-1.142-0.143-2.249-0.759-3.384-0.594
			c-1.113,0.557-3.095,0.356-4.569,0.51c-0.843,0.086-1.542,0.574-2.368,0.845c-1.833,0.604-3.186,1.161-5.244,1.27
			c-0.207,0.33-0.781,0.292-0.931,0.677c0.019,0.632,0.684,0.615,0.509,1.44c0.245,0.233,0.87,0.089,0.761,0.677
			c-1.019-0.052-1.911,0.769-2.538-0.084c-1.454,0.267-3.052,0.388-4.312,0.846c-0.091,0.588-0.251,1.104-0.339,1.693
			c1.203-0.1,2.962-0.002,4.061,0c-0.807,0.641-1.824,0.584-2.877,0.847c-0.396,0.098-0.782,0.47-1.184,0.592
			c-0.265,0.08-0.553,0.006-0.847,0.085c-0.861,0.231-1.649,0.898-2.452,1.185c-0.973,0.349-1.93,0.452-1.777,1.693
			c-0.212,0.153-0.578,0.153-0.591,0.507c0.01,0.471,0.173,0.786,0.423,1.016c0.548,0.067,0.991-0.416,1.353-0.253
			c-0.273,0.431-0.934,0.474-1.016,1.1c0.923,0.537,2.458-0.371,3.47,0.34c-1.017,0.373-1.918,0.819-2.877,1.185
			c-0.987,0.375-1.707,0.972-2.621,1.438C1.137,29.728,0.447,29.628,0,30.121c0.21,0.453,0.578-0.062,0.847,0
			c0.186,0.044,0.079,0.246,0.337,0.254c1,0.033,1.377-0.369,2.031-0.677c2.618-1.233,5.797-2.309,8.374-3.301
			c0.124-0.101,0.131-0.319,0.253-0.423c1.182-0.314,2.271-1.17,3.383-1.27c-0.545,0.3-1.278,0.412-1.269,1.27
			c1.506,0.035,3.046-0.62,4.398-1.017c0.167-0.199,0.167-0.566,0.254-0.846c0.745-0.044,1.155-0.426,1.861-0.508
			c0.268,1.006,1.417,0.957,2.537,1.101c0.994,0.126,1.973,0.728,2.876,0.677c0.229,0.928,0.406,1.905,1.692,1.777
			c-0.057,0.31,0.183,0.324,0.169,0.592c-0.174,0.165-0.413,0.265-0.424,0.593c0.253,0.396,0.523,0.776,0.678,1.269
			c-0.608,0.479,0.186,0.967,0.254,1.524c-1.381,0.36-0.485,2.085-0.677,3.302c-0.105,0.66-0.7,0.97-0.424,1.523
			c0.221,0.259,0.604,0.356,1.016,0.423c0.353,0.917,1.451,1.538,1.354,2.623c-0.681-0.615-0.762-1.833-1.522-2.369
			c-0.646,0.082-1.014-0.113-1.524-0.17c-0.606,1.263,0.703,1.982,1.187,2.71c-0.894,3.365-3.019,5.5-4.991,7.786
			c0.157,1.331-1.298,2.068-1.607,3.131c-0.04,0.139,0.11,0.3,0.085,0.51c-0.06,0.492-0.312,0.922-0.255,1.354
			c0.062,0.447,0.413,0.749,0.509,1.185c-0.379,1.438,0.096,2.371,0,4.232c0.293,0.354,0.843,0.454,1.438,0.508
			c0.271,0.504,0.93,0.646,1.183,1.27c0.511,1.257,0.022,3.234,0.509,4.655c0.289,0.849,1.146,0.982,1.015,1.861
			c-0.077,0.431-0.8,0.216-0.847,0.677c-0.245,1.104,0.88,1.892,1.775,1.863c0.05,0.346,0.392,0.4,0.424,0.761
			c-0.144,0.357-0.283,1.097-0.084,1.524c1.027,0.297,1.404,1.247,1.946,2.031c1.204-0.354,0.214-1.862-0.255-2.286
			c0.096-0.64-0.234-0.838-0.338-1.184c-0.193-0.644-0.164-1.431-0.423-2.117c-0.14-0.365-0.417-0.65-0.508-1.016
			c-0.075-0.298,0.007-0.649-0.085-0.931c-0.22-0.678-0.937-1.073-1.015-1.777c-0.063-0.568,0.115-1.264,0.424-1.778
			c0.438,0.362,1.09-0.013,1.353,0.509c-0.063,0.967,0.104,1.703,0.085,2.623c1.032,1.028,1.475,2.644,2.283,3.895
			c-0.097,0.186-0.219,0.345-0.169,0.677c1.523,1.551,3.051,3.099,3.384,5.841c-0.811,0.574-0.438,2.07,0.084,2.708
			c0.273,0.15,0.593,0.255,0.932,0.339c0.427,0.698,0.99,1.266,2.029,1.354c0.328,0.185,0.555,0.634,0.846,0.846
			c0.853,0.628,3.997,1.942,5.159,2.033c0.979,0.076,1.584-0.574,2.454-0.424c1.79,0.309,1.821,3.412,4.398,2.708
			c-0.011,0.209-0.013,0.408,0.084,0.509c0.865,0.309,1.539,0.903,2.706,0.677c0.949,0.356,1.26,3.101,2.537,1.777
			c0.081,0.259,0.412,0.265,0.424,0.593c-0.37-0.119-0.522-0.025-0.761,0.168c-0.11,0.399-0.087,0.931-0.255,1.271
			c0.9,0.905,2.413,1.195,2.877,2.538c0.574,0.318,1.083,0.066,1.69,0.339c0.651,0.291,0.837,1.422,1.861,0.677
			c0.187-0.35-0.002-0.694-0.084-1.016c0.478-0.143,0.557-0.684,1.1-0.762c0.433,0.242,0.82,0.533,1.184,0.847
			c-0.216,0.094-0.166,0.455-0.168,0.762c1.483,1.496,1.239,6.137-0.762,6.856c-0.371,0.439-0.061,0.982-0.254,1.27
			c-0.377,0.554-1.193,0.143-1.522,0.931c-0.22,0.143,0.164,0.394,0.084,0.677c-0.468,0.463-0.548,1.314-1.014,1.777
			c0.102,0.743,0.07,1.623,0.507,2.031c0.238,0.285,0.566-0.044,0.592,0.424c-0.542,0.814-1.697,1.358-1.523,2.539
			c0.085,0.566,0.872,1.002,0.425,1.693c0.217,0.374,0.612,0.57,1.099,0.677c0.818,1.1,1.615,2.22,2.029,3.725
			c1.591,1.201,1.781,3.805,3.131,5.247c0,0.17,0,0.339,0,0.508c0.633,0.806,1.288,1.589,1.945,2.37
			c3.052,1.057,5.603,2.197,6.005,5.587c0.187,1.567-0.068,3.684,0.17,5.587c0.124,0.987,0.292,2.059,0.423,2.876
			c0.158,1.003-0.195,2.554-0.254,3.302c0.507,0.658,0.176,1.471,0.254,2.201c0.047,0.45,0.319,0.793,0.423,1.185
			c0.602,2.309,0.134,4.334,0.17,6.856c-0.029,0.337-0.353,0.383-0.34,0.761c1.09,1.646,0.844,4.63,2.03,6.18
			c0.319,0.063,0.405-0.104,0.678-0.086c0.61,0.694,0.507,1.607,0.676,2.54c0.368,2.043,1.089,4.028,1.86,5.586
			c-0.075,0.207-0.197,0.366-0.168,0.678c0.514,1.594,1.917,2.678,2.198,4.232c0.805,0.717,1.437,2.01,2.623,1.945
			c0.874-0.047,0.865-1.104,1.86-0.846c-0.076,0.208-0.197,0.367-0.169,0.678c0.657,0.329,1.264,0.709,1.268,1.692
			c0.797,0.38,1.875,0.018,2.792,0.169c0.663,0.108,1.645,0.536,2.114-0.169c-1.82-0.942-4.167-1.36-4.651-3.64
			c-0.639-0.446-1.358-0.841-1.438-1.608c-0.074-0.714,0.726-1.219,0.508-2.116c0.681-0.502,1.681-1.515,0.845-2.539
			c-1.082-0.303-2.268-0.642-2.283-1.523c-0.015-0.876,1.445-1.029,1.607-1.777c0.093-0.426-0.313-0.768-0.339-1.101
			c-0.03-0.419,0.482-0.739,0.085-1.016c0.266,0.114,0.778,0.148,0.93-0.083c0.02-0.066,0.003-0.169,0.086-0.171
			c0.066-0.488-0.278-0.569-0.424-0.846c-0.528-0.053-0.8,0.119-1.185,0c-0.079-0.569-0.444-0.853-0.592-1.355
			c0.96,0.448,2.646,0.684,3.046-0.422c-0.396-0.513-0.229-1.805-0.676-2.116c1.706,0.176,3.603-0.169,4.566-1.017
			c0.144-0.844,0.636-1.597,0.422-2.539c-0.131-0.291-0.577-0.267-0.676-0.592c0.114-1.3-1.157-1.213-1.691-1.862
			c1.163,0.415,2.488,0.669,3.892,0.847c1.749-1.183,1.963-3.903,2.959-5.841c0.154,0.189,0.428,0.2,0.678,0.084
			c0.413-0.427,0.087-0.754,0.254-1.185c0.25-0.648,1.099-0.944,1.354-1.439c0.68-1.316-0.498-2.461-0.17-4.316
			c0.624-1.219,1.692-1.456,3.045-2.03c0.535-0.228,0.96-0.721,1.438-0.847c0.819-0.217,1.682-0.065,2.539-0.339
			c0.224-0.989,1.598-1.086,1.1-2.539c0.564-0.939,1.465-1.917,1.014-3.386c0.809-0.603,0.428-2.394,0.932-3.301
			c-0.325-0.719-0.661-1.88-0.509-2.878c0.077-0.502,0.566-0.79,0.424-1.271c0.935-0.39,1.204-1.446,1.606-2.369
			c2.098-1.214,3.446-5.541,1.607-7.956C111.671,109.264,111.146,109.36,110.637,109.176z"/>
		<path fill-rule="evenodd" fill="#DDDFE1" d="M72.065,14.547c0.912,0.5,3.152,0.851,3.722-0.169
			C75.179,12.88,72.797,13.6,72.065,14.547z"/>
		<path fill-rule="evenodd" fill="#DDDFE1" d="M136.012,20.303c0.513,0.464,1.312,0.212,2.03,0.339
			c0.425,0.074,0.797,0.356,1.185,0.338c0.357-0.016,0.838-0.396,1.27-0.592c1.426-0.646,3.544-0.477,3.636-2.032
			c-0.526-0.25-0.642-0.862-1.184-1.015c-0.561-0.158-1.027,0.189-1.69,0.253c-0.331,0.032-0.756-0.124-1.102-0.085
			c-0.368,0.044-0.722,0.345-0.93,0.34c-0.31-0.006-0.531-0.498-0.846-0.255c-0.298,0.098-0.311,0.481-0.593,0.594
			c-0.333-1.521-2.86-0.896-3.045,0.338c0.645,0.377,1.322-0.479,1.692,0.084c-0.095,0.329-0.534,0.313-0.593,0.678
			c0.093,0.274,0.415,0.319,0.593,0.509C136.283,19.953,135.933,19.913,136.012,20.303z"/>
		<path fill-rule="evenodd" fill="#DDDFE1" d="M149.124,28.089c0.155,0.466,0.215,1.028,0.591,1.271
			c-0.124,0.249-0.507,0.572-0.338,0.846c0.077,0.206,0.34,0.225,0.592,0.255c-0.098,0.101-0.096,0.299-0.085,0.509
			c0.627,0.092,0.951,0.597,1.692,0.337c-0.339,0.75,0.564,0.681,0.508,1.271c-0.077,0.783-1.263,0.372-1.776,1.016
			c0.027,0.395,0.479,0.365,0.508,0.762c-0.39,0.091-0.745,0.214-0.932,0.508c-0.071,0.806,1.186,0.281,1.523,0.677
			c-0.991,0.277-1.796,0.743-2.114,1.693c0.904,0.475,1.583-0.356,2.452-0.508c0.41-0.071,0.928,0.026,1.354,0
			c1.071-0.068,3.223-0.109,3.298-1.101c-0.145-0.222-0.675-0.057-0.76-0.338c1.276-0.465,1.161-1.922-0.339-2.032
			c-0.08-0.568-0.396-0.901-0.423-1.523c-0.312-0.14-0.613-0.29-0.847-0.508c0.026-1.042-0.925-1.105-1.015-2.03
			c0.15-0.302,0.554-0.352,0.762-0.593c-0.131-0.378-0.229-0.787-0.424-1.101c-0.507-0.026-1.164,0.241-1.606,0
			c0.274-0.206,0.656-0.303,0.931-0.509c-0.069-0.805-1.33-0.418-2.114-0.508c-0.077,0.686-0.946,0.578-0.847,1.44
			C149.407,27.866,149.266,27.978,149.124,28.089z"/>
		<path fill-rule="evenodd" fill="#DDDFE1" d="M147.009,30.798c-0.205,0.219-0.144,0.702-0.423,0.848
			c-0.278,0.172-0.856,0.045-1.27,0.084c-0.622,0.589,0.029,1.36,0.254,1.862c-0.175,0.446-0.927,0.312-1.015,0.847
			c0.205,0.557,0.427,1.097,1.015,1.27c0.955-0.342,1.439-1.157,2.876-1.016c0.342-0.562,0.69-1.115,0.592-2.116
			C151.122,31.773,148.542,29.724,147.009,30.798z"/>
		<path fill-rule="evenodd" fill="#DDDFE1" d="M306.112,47.896c0.276-0.318,0.054-1.131,0.508-1.271
			c0.16,0.15,0.559,0.062,0.846,0.086c0.124-0.188,0.258-0.364,0.254-0.678c-0.462-0.357-0.78-0.856-1.016-1.439
			c-0.428-0.062-0.501,0.232-0.845,0.255c-1.432-0.515-2.443-1.449-4.146-1.693c0.325,0.974,1.029,1.566,1.186,2.709
			c-0.272-0.013-0.562-0.261-0.761-0.086c-0.1,0.344,0.035,0.792-0.084,1.27c0.376,0.414,0.839,0.741,0.93,1.44
			c0.39-0.006,0.673-0.117,0.929-0.256c0.17-0.567-0.313-0.826-0.168-1.101C304.688,47.233,305.175,47.791,306.112,47.896z"/>
		<path fill-rule="evenodd" fill="#DDDFE1" d="M163.419,51.789c0.615,0.024,0.834-0.349,1.267-0.507
			c0.153-1.038,0.066-2.465-0.592-2.964c0.454-0.162,0.653-1.562,0.17-1.862c-0.282,0.199-0.708,0.252-0.931,0.509
			c-0.067,0.8,0.32,1.146,0.678,1.524c-0.248,0.231-0.659,0.299-0.932,0.507C163.324,49.969,162.923,51.068,163.419,51.789z"/>
		<path fill-rule="evenodd" fill="#DDDFE1" d="M296.893,59.407c0.079,0.64,1.112,0.576,1.27,1.185
			c-0.214,0.604,0.493,1.405,0.846,1.438c1.123,0.11,0.74-1.49,1.016-2.454c-0.401-0.644-1.221-0.867-1.861-1.27
			c0.6-0.065,0.966,0.105,1.521,0.085c0.353-0.809,1.496-1.069,2.538-0.932c0.179,0.752,0.51,1.352,1.354,1.439
			c0.408-0.354,0.848-1.03,0.847-1.523c0.297,0.096,0.526,0.262,0.93,0.254c0.274-0.092,0.286-0.446,0.508-0.593
			c0.197,0.026,0.316,0.134,0.591,0.083c0.156-0.209,0.205-0.527,0.34-0.761c0.155,0.184,0.102,0.575,0.506,0.508
			c0.318,0.064,0.186-0.322,0.424-0.338c-0.036-1.544-0.385-2.775-0.93-3.81c0.047-0.206,0.326-0.18,0.252-0.507
			c-0.349-0.361-0.209-0.666-0.338-1.186c-0.164-0.673-1.607-2.886-2.536-2.709c-0.142,0.026-0.559,0.447-0.593,0.763
			c-0.08,0.76,1.194,2.324,0.93,3.639c-0.126,0.631-0.806,1.174-1.269,1.44c-0.048-0.235-0.088-0.476-0.422-0.424
			c-0.394,0.5-0.737,1.498-0.593,2.03c-0.915-0.417-1.744,0.407-2.876,0.085c-0.437,0.865-1.811,1.229-1.606,2.455
			C297.281,58.587,296.838,58.958,296.893,59.407z"/>
		<path fill-rule="evenodd" fill="#DDDFE1" d="M157.666,51.197C158.732,49.566,155.581,50.856,157.666,51.197L157.666,51.197z"/>
		<path fill-rule="evenodd" fill="#DDDFE1" d="M191.754,56.022c-0.673-0.024-1.472,0.479-2.284,0.592
			c-0.027,0.281-0.245,0.375-0.168,0.762C190.549,57.978,191.368,56.831,191.754,56.022z"/>
		<path fill-rule="evenodd" fill="#DDDFE1" d="M182.703,56.783c-0.581-0.523-2.035-0.607-2.875-0.593c0,0.112,0,0.226,0,0.339
			C180.614,56.736,181.729,57.043,182.703,56.783z"/>
		<path fill-rule="evenodd" fill="#DDDFE1" d="M301.883,59.069c0.151-0.273,0.345-0.504,0.339-0.933
			c-0.547-0.806-1.409-0.318-2.198-0.084c-0.095,0.358-0.367,0.537-0.424,0.931c0.28,0.341,0.597,0.645,1.184,0.677
			C301.176,59.488,301.148,58.897,301.883,59.069z"/>
		<path fill-rule="evenodd" fill="#DDDFE1" d="M210.701,68.717c0.368-0.029,0.468-0.672,0.338-0.931
			C210.563,67.708,210.549,68.438,210.701,68.717z"/>
		<path fill-rule="evenodd" fill="#DDDFE1" d="M290.042,69.903c-0.517,1.363-0.745,3.729,0.93,3.977
			c0.417-1.002,0.721-2.596,0.677-3.977C291.25,69.46,290.462,69.539,290.042,69.903z"/>
		<path fill-rule="evenodd" fill="#DDDFE1" d="M65.553,71.426c0.874-0.682-0.528-2.482-0.76-0.931
			C65.139,70.712,65.09,71.324,65.553,71.426z"/>
		<path fill-rule="evenodd" fill="#DDDFE1" d="M65.046,76.758c0.427,0.369,1.012-0.034,1.522-0.084
			c0.419,0.69,2.505,0.819,2.453-0.17c-0.025-0.485-1.003-0.574-1.691-1.015c-0.181-0.115-0.213-0.355-0.338-0.425
			c-0.302-0.161-0.655-0.149-0.931-0.337c-0.755-0.515-1.102-1.3-1.692-1.524c-0.226,0-0.451,0-0.677,0
			c-1.65-1.577-6.074-1.354-6.682,1.101c1.179,0.16,1.804-0.956,3.214-0.846c0.269,0.509,0.88,0.433,1.522,0.507
			c0.961,0.11,1.19,0.741,2.114,0.763c0.028,0.818,0.957,0.735,1.354,1.184C65.069,76.104,65.011,76.385,65.046,76.758z"/>
		<path fill-rule="evenodd" fill="#DDDFE1" d="M278.623,78.959c0.384-0.095,0.824-0.135,1.184-0.254
			c0.203-0.604,0.782-1.485,0.338-2.201C277.969,75.681,276.945,78.203,278.623,78.959z"/>
		<path fill-rule="evenodd" fill="#DDDFE1" d="M72.321,79.043c0.811,0.137,1.162-0.19,1.689-0.338
			c0.378-0.01,0.438,0.296,0.847,0.254c0.252-0.114,0.374-0.359,0.423-0.678c-0.359-0.37-0.945-0.851-1.606-1.015
			c-0.126-0.032-0.385,0.06-0.509,0c-0.301-0.146-0.394-0.521-0.761-0.593c-0.349-0.067-0.587,0.158-0.93,0.169
			c-0.631,0.02-1.187-0.375-1.777-0.169c-0.004,0.108-0.107,0.117-0.084,0.254c0.18,0.469,0.774,0.523,0.677,1.27
			c-0.774,0.099-1.871-0.122-2.029,0.593C69.346,79.161,71.348,79.831,72.321,79.043z"/>
		<path fill-rule="evenodd" fill="#DDDFE1" d="M76.55,79.298c0.569,0.235,1.484,0.163,1.691-0.424
			C78.104,78.126,75.88,78.101,76.55,79.298z"/>
		<path fill-rule="evenodd" fill="#DDDFE1" d="M293.425,78.535c-0.694,0.229-1.604-0.559-2.199,0.086
			c0.134,0.797,0.223,1.64,0.17,2.623c-0.88,0.687-0.43,3.086,1.015,2.793c-0.171,0.904,0.768,0.66,1.354,0.593
			c0.717,0.829,1.817,0.872,2.876,1.44c0.257-0.591-0.471-0.871-0.338-1.609c-0.649-0.267-1.538-0.863-2.369-0.424
			c-1.181-1.05-0.101-2.354,0.168-3.554C293.749,79.961,293.594,79.243,293.425,78.535z"/>
		<path fill-rule="evenodd" fill="#DDDFE1" d="M291.902,84.799c0.224,0.961,0.406,1.965,1.522,2.032
			C294.094,85.882,293.129,84.664,291.902,84.799z"/>
		<path fill-rule="evenodd" fill="#DDDFE1" d="M295.37,85.73c-0.244,0.549,0.481,0.799,0.423,1.438
			c0.311-0.174,0.468,0.025,0.762,0.086C296.573,86.659,295.774,86.182,295.37,85.73z"/>
		<path fill-rule="evenodd" fill="#DDDFE1" d="M297.315,87.508c-0.222-0.023-0.363,0.03-0.339,0.253
			c0.01,1.063,0.44,1.706,1.016,2.201c0.826-0.227-0.039-1.479,0-1.693c0.183,0.184,0.473,0.044,0.592-0.084
			c-0.035-0.782-0.366-1.27-0.592-1.861c-0.513,0.063-1.018-0.244-1.438,0C296.444,87.081,297.094,87.081,297.315,87.508z"/>
		<path fill-rule="evenodd" fill="#DDDFE1" d="M294.694,89.285c0.628-0.16,0.801-0.777,1.016-1.354
			c-0.503-0.149-0.734-0.564-1.355-0.593C294.418,88.038,294.15,89.067,294.694,89.285z"/>
		<path fill-rule="evenodd" fill="#DDDFE1" d="M295.116,90.131c0.221,0.261,0.465,0.495,0.846,0.593
			c0.521-0.613,1.092-1.609,0.847-2.708C295.772,87.917,295.203,89,295.116,90.131z"/>
		<path fill-rule="evenodd" fill="#DDDFE1" d="M295.878,93.009c0.232,0.331,0.541,0.209,1.015,0.17
			c0.044,1.537,0.951,2.208,2.199,2.539c0.314-0.608,0.156-1.347,0.254-2.032c0.15,0.076,0.215,0.236,0.509,0.17
			c0.495-1.302-0.179-3.137-1.016-3.894c-0.016,0.125-0.205,0.078-0.34,0.085c-0.082,0.199-0.146,0.416-0.169,0.677
			c-0.877-0.145-0.524,0.941-1.099,1.102c-0.781-1.014-1.38,0.029-2.2,0.338c-0.111,0.452-0.58,1.158-0.168,1.608
			C295.45,93.766,295.61,93.334,295.878,93.009z"/>
		<path fill-rule="evenodd" fill="#DDDFE1" d="M246.227,90.131c-0.057,0-0.114,0-0.169,0c-0.456,1.576-0.704,3.985,0.422,5.333
			c0.981-0.062,1.543-0.546,2.031-1.1C248.556,92.145,247.513,91.017,246.227,90.131z"/>
		<path fill-rule="evenodd" fill="#DDDFE1" d="M280.822,104.774c0.193,0.85,0.323,1.764,0.762,2.37c0.533,0.092,0.796,0.043,1.353,0
			c0.101,1.185,1.51,0.252,1.945,0c0.164,0.146,0.241,0.379,0.422,0.508c0.328,0.045,0.413-0.15,0.762-0.085
			c0.194,0.314,0.178,0.839,0.593,0.932c0.604-0.312,1.31-0.535,1.861-0.678c0.072-0.41-0.242-0.435-0.169-0.847
			c0.067-0.438,0.424-0.59,0.506-1.015c-0.535-1.171,0.484-1.614,1.186-2.032c0.166-0.624-0.053-1.632,0.423-1.946
			c0.447,0.023,0.842-0.005,1.099-0.17c-0.086-0.729-0.647-0.988-0.931-1.523c0.317-0.604-0.312-0.988-0.423-1.439
			c-0.088-0.365,0.218-0.722-0.083-1.101c0.147-0.415,0.854-0.271,1.099-0.591c0.057-0.311-0.184-0.325-0.17-0.593
			c1.771-0.354,0.067-1.724-1.014-1.692c-0.23-0.646-0.557-1.191-1.186-1.44c-0.524,0.773-1.059,1.537-1.521,2.37
			c-2.204,0.335-1.854,3.223-4.483,3.133c-0.355,0.406-0.383,1.14-0.677,1.607c-0.535-0.141-1.069-0.284-1.691-0.338
			c-1.012,0.98-0.483,2.86-0.169,4.316C280.405,104.685,280.703,104.638,280.822,104.774z"/>
		<path fill-rule="evenodd" fill="#DDDFE1" d="M276.171,105.96c-0.894-0.235-1.355-0.903-1.439-1.948
			c-0.139-0.199-0.582-0.094-0.761-0.253c0.036-0.388,0.128-0.717,0.085-1.185c-0.449-0.341-0.796-0.785-1.101-1.27
			c-0.903-0.14-1.264-0.823-1.776-1.354c-0.21-0.072-0.453-0.111-0.761-0.086c-0.669-0.552-1.077-1.362-1.777-2.03
			c-0.338-0.324-0.873-0.501-1.184-0.848c-0.275-0.309-0.3-0.761-0.676-1.015c-0.719-0.487-1.747-0.334-2.792-0.594
			c-0.184,0.296-0.229,0.648-0.169,0.932c0.046,0.218,1.251,1.51,1.522,1.777c0.611,0.603,1.34,0.909,1.438,1.946
			c0.199,0.111,0.585,0.036,0.761,0.17c0.382,0.745,0.797,1.459,0.845,2.538c0.199,0.198,0.564,0.227,0.678,0.509
			c0.749,0.743,0.838,1.868,1.354,2.709c0.193,0.313,0.564,0.442,0.846,0.762c0.466,0.526,0.786,1.318,1.184,1.777
			c0.403,0.461,1.041,0.699,1.439,1.184c0.333,0.409,0.376,0.928,0.929,1.102c0.563-0.123,0.631-0.444,1.355-0.254
			C276.368,108.938,276.849,107.137,276.171,105.96z"/>
		<path fill-rule="evenodd" fill="#DDDFE1" d="M302.392,100.374c0.568,0.095,0.666-0.655,0.507-1.017c-0.113,0-0.226,0-0.339,0
			C302.596,99.767,302.09,99.967,302.392,100.374z"/>
		<path fill-rule="evenodd" fill="#DDDFE1" d="M302.898,100.628c-0.413-0.048-0.327,0.405-0.677,0.423
			c0.027-0.338,0.006-0.626-0.168-0.763c-0.995,0.073-0.608,1.639-0.509,2.37C302.217,102.259,303.83,101.577,302.898,100.628z"/>
		<path fill-rule="evenodd" fill="#DDDFE1" d="M296.302,108.414c-0.692-0.747-0.822-2.057-1.438-2.878
			c0.672-0.568,1.819-0.662,2.029-1.692c-0.722-0.464-1.544,0.391-2.368-0.085c-0.348,0.048-0.162,0.63-0.508,0.677
			c-0.514-0.274-0.867-0.711-0.762-1.607c0.175-0.025,0.168-0.229,0.339-0.254c1.799-0.287,3.789,0.584,4.736-0.509
			c0.265-0.305,0.698-1.064,0.339-1.691c-0.926-0.132-0.787,0.966-1.606,1.1c-0.966,0.158-2.051-0.435-3.13-0.508
			c-0.321,0.243-0.419,0.71-1.015,0.677c-0.831,0.89-0.864,2.578-1.1,4.062c-0.593,0.366-0.972,1.947,0.084,2.116
			c0.51,0.736-0.18,1.87,0.085,2.625c1.725,0.383,1.611-2.586,1.184-3.641c0.211,0.014,0.263-0.133,0.423-0.168
			c0.257,0.447,0.088,1.323,0.507,1.606c-0.236,0.516-0.021,1.244,0.594,1.186c0.357-0.121,0.39-0.569,0.93-0.508
			c-0.248,0.091-0.298,0.38-0.254,0.761c0.211,0.185,0.293,0.499,0.677,0.509C296.243,109.476,295.838,108.938,296.302,108.414z"/>
		<path fill-rule="evenodd" fill="#DDDFE1" d="M302.306,103.844c-0.142-0.968-1.416-0.657-1.184,0.084
			C301.248,104.331,302.163,104.516,302.306,103.844z"/>
		<path fill-rule="evenodd" fill="#DDDFE1" d="M313.218,104.69c-0.701,0.2-0.814,0.99-1.777,0.931
			c-0.357,0.432-0.454,1.124-1.015,1.354c-0.594-0.618-1.114-1.31-1.015-2.623c-0.519-0.08-0.678-0.742-1.184-0.933
			c-0.97-0.36-1.792,0.206-2.538,0.593c-0.311-0.055-0.579-0.155-0.762,0.087c0.041,0.664,0.504,0.906,1.27,0.846
			c0.329,0.717,1.204,1.234,2.199,1.016c-0.598,0.22-1.134,0.501-1.86,0.591c0.516,0.67,0.416,1.955,1.437,2.117
			c0.436-0.015,0.164-0.737,0.594-0.762c1.76,1.509,5.359,1.181,5.328,4.486c-0.743,0.157-0.942,0.862-1.015,1.693
			c0.934,0.566,1.542-0.428,2.453-0.424c0.711,1.045,2.463,2.421,3.89,1.354c0.672-0.501,0.629-1.874,1.692-1.861
			c0.517,0.005,0.88,0.724,1.523,0.508c0.542,0.896,0.806,2.645,2.368,2.877c0.352,0.053,0.797-0.163,1.185-0.084
			c0.482,0.098,1.726,1.354,1.944,0.254c0.135-0.676-1.1-0.983-1.438-1.439c0.037-0.29-0.033-0.473-0.084-0.678
			c-0.311-0.174-0.467,0.023-0.762,0.085c-0.405-1.005-1.246-1.574-1.606-2.623c0.479-0.056,0.888-0.184,1.016-0.593
			c-0.377-0.889-1.527-1.276-2.369-1.438c0.068-0.158,0.141-0.311,0.169-0.508C320.904,106.648,316.643,106.088,313.218,104.69z"/>
		<path fill-rule="evenodd" fill="#DDDFE1" d="M302.222,104.944c-0.127-0.198-0.509-0.446-0.761-0.254
			c0.029,0.365,0.227,0.562,0.593,0.592C302.054,105.113,302.283,105.175,302.222,104.944z"/>
		<path fill-rule="evenodd" fill="#DDDFE1" d="M312.119,105.197c-0.148-0.19-1.046-0.438-1.185-0.085
			C311.053,105.406,312.014,105.661,312.119,105.197z"/>
		<path fill-rule="evenodd" fill="#DDDFE1" d="M299.938,106.382c0.162-0.286,0.317-0.944,0.17-1.27
			c-0.63,0.088-1.507,0.365-1.945-0.084c-0.108,0.22-0.186,0.255-0.084,0.508C298.809,105.707,299.536,105.882,299.938,106.382z"/>
		<path fill-rule="evenodd" fill="#DDDFE1" d="M304.081,105.536c0.302,0.237,0.653-0.037,0.594-0.424
			C304.405,104.904,304.053,105.179,304.081,105.536z"/>
		<path fill-rule="evenodd" fill="#DDDFE1" d="M305.183,107.821c0.327-1.352-2.001-1.205-3.045-1.184
			c-0.068,0.434,0.068,0.665,0.254,0.845C303.581,107.139,304.28,107.939,305.183,107.821z"/>
		<path fill-rule="evenodd" fill="#DDDFE1" d="M330.644,108.414c0.05,0.314-0.161,0.894,0.252,0.847c0.367-0.207,0.008-0.901,0-1.27
			c-0.757-0.432-1.288-1.526-2.367-1.354c-0.005,0.107-0.108,0.116-0.086,0.253C329.505,107.07,329.998,107.816,330.644,108.414z"/>
		<path fill-rule="evenodd" fill="#DDDFE1" d="M301.545,108.076c0.173-0.223,0.295-0.496,0.254-0.932
			c-0.682-0.019-2.049-0.695-2.031,0.593C300.14,108.071,300.833,108.083,301.545,108.076z"/>
		<path fill-rule="evenodd" fill="#DDDFE1" d="M328.104,111.292c0.891-0.217,3.477-2.972,1.101-2.963
			c0.223,0.903-0.703,1.155-1.101,1.693c-0.78,0.106-1.794,0.082-2.706,0.169C325.451,111.408,326.832,111.295,328.104,111.292z"/>
		<path fill-rule="evenodd" fill="#DDDFE1" d="M334.363,111.715c-0.249-0.991-1.059-1.424-1.606-2.116
			C332.644,110.534,333.3,112.234,334.363,111.715z"/>
		<path fill-rule="evenodd" fill="#DDDFE1" d="M308.819,111.715c0.745,0.3,1.204-0.882,0.762-1.523
			C308.816,110.162,308.889,111.318,308.819,111.715z"/>
		<path fill-rule="evenodd" fill="#DDDFE1" d="M284.882,114.086c0.701,0.521,1.785,0.167,2.537,0.169
			c0.051-0.204,0.122-0.387,0.085-0.677c-0.221-0.288-0.742-0.274-1.269-0.256c-0.278-0.482-0.994-0.529-1.522-0.761
			c0.385,0.046,0.633-0.044,0.76-0.254c0.063-0.259-0.145-0.25-0.083-0.508c-1.181-0.232-2.752,0.015-3.722-0.592
			c-0.288,0.052-0.137,0.54-0.509,0.507c-0.625,0.062-1.033-0.095-1.606-0.085c-0.312-0.109-0.272-0.573-0.677-0.592
			c-1.426-0.293-3.081-0.877-3.13,1.016c0.379,0.072,0.647,0.256,1.101,0.254c0.737,0.981,1.954,0.699,3.214,0.931
			C281.471,113.499,283.099,114.917,284.882,114.086z"/>
		<path fill-rule="evenodd" fill="#DDDFE1" d="M335.718,112.393c0.056-0.583-0.613-0.828-1.016-0.678
			C334.879,112.103,335.233,112.312,335.718,112.393z"/>
		<path fill-rule="evenodd" fill="#DDDFE1" d="M338.593,113.999c-0.158-0.723-0.986-1.202-1.69-1.1
			C337.343,113.389,337.918,113.745,338.593,113.999z"/>
		<path fill-rule="evenodd" fill="#DDDFE1" d="M335.125,113.746c0.032-0.344-0.03-0.59-0.339-0.592
			C334.616,113.366,334.689,113.878,335.125,113.746z"/>
		<path fill-rule="evenodd" fill="#DDDFE1" d="M336.817,114.255c-0.141-0.469-0.696-0.92-1.185-0.762
			C335.871,113.861,336.358,114.382,336.817,114.255z"/>
		<path fill-rule="evenodd" fill="#DDDFE1" d="M288.688,114.932c0.507,0.179,1.018,0.179,1.522,0
			c0.079-0.148,0.029-0.423,0.17-0.509c0.472,0.368,1.439,0.327,1.269-0.592c-0.845-0.454-2.106-0.001-2.792,0.255
			c0.067-0.293-0.094-0.357-0.169-0.508c-0.348,0.066-0.433-0.131-0.76-0.085c-0.074,0.406-0.37,0.589-0.34,1.099
			c0.096,0.019,0.132,0.095,0.17,0.171c0.507,0.192,0.68-0.388,0.846-0.255C288.576,114.705,288.617,114.834,288.688,114.932z"/>
		<path fill-rule="evenodd" fill="#DDDFE1" d="M295.116,114.423c0.229-0.637-0.796-0.492-1.522-0.592
			c-0.805-0.11-1.688-0.263-1.691,0.677C292.619,114.733,294.537,114.881,295.116,114.423z"/>
		<path fill-rule="evenodd" fill="#DDDFE1" d="M297.4,113.662c0,0.112,0,0.225,0,0.337c0.284-0.025,0.733,0.115,0.678-0.253
			C297.954,113.616,297.643,113.672,297.4,113.662z"/>
		<path fill-rule="evenodd" fill="#DDDFE1" d="M297.992,115.608c0.838-0.591,2.285-0.716,2.707-1.609
			c-0.895-0.717-2.556-0.263-2.791,0.678c-0.49,0.132-0.867,0.375-1.438,0.423c-0.135,0.423-0.537,0.859-0.338,1.355
			C297.157,116.827,297.425,116.01,297.992,115.608z"/>
		<path fill-rule="evenodd" fill="#DDDFE1" d="M295.286,113.831c-0.229,0.271-0.021,0.646,0.424,0.508
			C295.777,113.96,295.56,113.869,295.286,113.831z"/>
		<path fill-rule="evenodd" fill="#DDDFE1" d="M296.132,113.915c0,0.084,0,0.171,0,0.255c0.225,0.163,0.82,0.133,0.677-0.339
			C296.564,113.841,296.254,113.785,296.132,113.915z"/>
		<path fill-rule="evenodd" fill="#DDDFE1" d="M340.201,115.524c-0.077-0.687-0.473-1.053-0.593-1.693c-0.112,0-0.225,0-0.338,0
			C339.433,114.542,339.467,115.384,340.201,115.524z"/>
		<path fill-rule="evenodd" fill="#DDDFE1" d="M338.256,115.778c0.233,0.253,0.786,0.421,1.184,0.254
			c0.091-0.543-0.261-0.643-0.169-1.186C338.487,114.713,338.08,114.954,338.256,115.778z"/>
		<path fill-rule="evenodd" fill="#DDDFE1" d="M293.171,116.455c0.836-1.137-1.646-1.977-2.115-1.016
			C291.489,116.05,292.434,116.15,293.171,116.455z"/>
		<path fill-rule="evenodd" fill="#DDDFE1" d="M340.961,117.048c-0.006-0.47-0.553-0.77-1.016-0.509
			C339.973,117.014,340.61,117.417,340.961,117.048z"/>
		<path fill-rule="evenodd" fill="#DDDFE1" d="M209.431,120.263c-0.175,0.192-0.49,0.243-0.674,0.424
			c-0.534,2.091-2.214,3.034-4.314,3.556c-0.165,0.705-0.66,1.014-0.762,1.777c-0.126,0.944,0.39,2.011,0.253,3.047
			c-0.148,1.131-1.309,1.963-1.437,2.793c-0.073,0.467,0.187,0.982,0.253,1.523c0.132,1.076-0.008,1.938,0.507,2.539
			c0.377,0.439,1.221,0.861,1.692,0.848c0.243-0.007,1.749-0.583,1.86-0.678c0.311-0.264,0.766-1.324,0.932-1.778
			c0.423-1.166,0.733-2.483,1.184-3.724c0.605-1.667,1.445-3.024,1.521-4.994c0.128-0.267,0.377-0.412,0.423-0.762
			c0-0.367,0-0.732,0-1.1c0.282,0.026,0.521,0.013,0.593-0.169c0.162-1.806-0.349-3.651-1.185-4.74
			C209.738,118.71,209.591,119.717,209.431,120.263z"/>
		<path fill-rule="evenodd" fill="#DDDFE1" d="M346.205,124.58c-0.119-0.613-0.364-1.102-0.76-1.438
			c0.112-0.241,0.239-1.112-0.254-1.017c-0.131,0.335-0.119,1.024-0.086,1.271C345.634,123.629,345.479,124.547,346.205,124.58z"/>
		<path fill-rule="evenodd" fill="#DDDFE1" d="M346.629,124.242c0.463-0.09,0.501-0.999,0.339-1.44c-0.086,0-0.17,0-0.255,0
			c0.026,0.337-0.378,0.243-0.338,0.594C346.854,123.456,346.372,123.958,346.629,124.242z"/>
		<path fill-rule="evenodd" fill="#DDDFE1" d="M359.993,124.326c-0.586-0.371-1.802-0.105-1.776,0.678
			C358.646,125.676,360.112,125.239,359.993,124.326z"/>
		<path fill-rule="evenodd" fill="#DDDFE1" d="M346.545,124.665c-0.206,0.267-0.018,0.707,0.337,0.677
			C347.071,125.092,346.828,124.706,346.545,124.665z"/>
		<path fill-rule="evenodd" fill="#DDDFE1" d="M358.048,125.596c-0.337-0.126-1.016-0.126-1.354,0
			c-0.496,0.488-0.346,1.349,0.254,1.608c0.577-0.016,1.307,0.124,1.353-0.422C358.439,126.463,357.799,126.068,358.048,125.596z"/>
		<path fill-rule="evenodd" fill="#DDDFE1" d="M346.713,126.612c-0.025-0.284,0.113-0.734-0.253-0.678
			C346.274,126.13,346.134,126.755,346.713,126.612z"/>
		<path fill-rule="evenodd" fill="#DDDFE1" d="M346.798,127.374c-0.109,0.11-0.109,0.312,0,0.422
			c0.147,0.007,0.263-0.019,0.339-0.084C347.125,127.497,347.014,127.385,346.798,127.374z"/>
		<path fill-rule="evenodd" fill="#DDDFE1" d="M346.882,128.896c0.266,0.04,0.378-0.072,0.339-0.338
			C346.988,128.295,346.619,128.664,346.882,128.896z"/>
		<path fill-rule="evenodd" fill="#DDDFE1" d="M347.137,129.32c0,0.112,0,0.226,0,0.339c0.264,0.038,0.377-0.074,0.337-0.339
			C347.361,129.32,347.249,129.32,347.137,129.32z"/>
		<path fill-rule="evenodd" fill="#DDDFE1" d="M340.623,129.405c0.499,1.363,1.327,2.396,2.622,2.962
			c0.521-0.986-0.903-1.301-1.185-2.031c-0.489-0.216-0.739-0.671-1.184-0.931C340.792,129.405,340.708,129.405,340.623,129.405z"/>
		<path fill-rule="evenodd" fill="#DDDFE1" d="M345.868,152.597c-0.161-0.178-0.487-0.19-0.594-0.424
			c-0.048-0.451,0.197-0.741,0-1.1c-0.272-0.07-0.729,0.105-0.761,0c0.272-0.49,0.523-1,0.509-1.777
			c-0.502-0.346-0.734-0.961-1.27-1.27c-1.12,1.548,0.373,4.442-1.521,5.84c-0.548,0.403-1.271,0.144-1.439,1.101
			c0.109,0.398,0.686,0.329,0.677,0.847c-0.239,0.662-0.996,0.81-1.015,1.693c1.277-0.115,2.591-0.679,3.383-1.693
			c0.323-0.414,0.375-0.939,0.763-1.187c0.295-0.187,0.625-0.041,0.93-0.169c0.329-0.137,0.793-0.604,1.1-0.845
			c0.382-0.305,0.775-0.732,0.845-1.186C347.018,151.892,346.372,152.446,345.868,152.597z"/>
		<path fill-rule="evenodd" fill="#DDDFE1" d="M310.004,156.574c-0.496-0.056-0.779-0.475-1.1-0.423
			c-0.86,0.139-0.784,1.298-0.932,2.032c-0.06,0.299-0.385,0.513-0.422,0.846c-0.058,0.54,0.156,1.085,0.592,1.438
			c1.083,0.041,1.453-0.634,2.283-0.847c0.61-1.082,1.823-1.561,1.946-3.131C311.432,156.166,310.648,156.647,310.004,156.574z"/>
		<path fill-rule="evenodd" fill="#DDDFE1" d="M338.847,156.744c0.034-0.315-0.067-0.497-0.338-0.508
			c-0.973-0.07-1.044,0.761-1.606,1.101c-0.388-0.075-0.48,0.141-0.764,0.17c-0.562,0.692-1.036,1.224-1.775,1.693
			c-1.065,0.674-2.457,0.736-3.553,1.354c-0.605,0.341-0.89,1.078-1.691,0.93c-0.594,0.958-2.242,0.861-2.453,2.201
			c0.703,0.368,1.711,0.433,2.707,0.508c1.127-0.606,2.427-1.152,3.468-2.031c0.375-0.315,0.525-0.757,0.932-0.931
			c0.745-0.321,1.682-0.113,2.366-0.509c0.252-0.144,0.387-0.519,0.679-0.762c1.258-1.046,3.126-1.605,3.045-3.47
			C339.382,156.433,339.206,156.681,338.847,156.744z"/>
		<path fill-rule="evenodd" fill="#DDDFE1" d="M94.819,171.218c0.694,0.017,1.032-0.322,1.099-0.931
			C95.311,169.737,94.303,170.371,94.819,171.218z"/>
		<path fill-rule="evenodd" fill="#DDDFE1" d="M96.089,171.387c0.752-0.01,1.057-0.467,1.438-0.846
			C96.926,169.73,95.342,170.287,96.089,171.387z"/>
		<path fill-rule="evenodd" fill="#DDDFE1" d="M264.75,80.651c0.305,0.657,0.517,1.402,0.932,1.946
			c0.435,2.019,1.76,3.149,1.605,5.756c-0.104,0.205-0.209,0.411-0.253,0.678c0.547,1.071-0.308,2.354,0.169,3.64
			c0.233,0.234,0.354-0.076,0.593-0.085c0.735,1.22,1.809,2.229,2.199,3.809c0.233,0.946,0.15,1.747,0.763,2.201
			c0.162,1.755,2.052,1.783,2.959,2.793c0.377-0.104,0.728-0.231,0.846-0.593c-0.272-0.927-0.841-1.749-0.932-2.877
			c-0.029-0.384,0.086-0.798,0-1.185c-0.211-0.96-1.271-1.401-1.521-2.202c-0.928,0.253-0.796-1.215-1.862-1.101
			c-0.369-0.982-0.749-1.957-1.099-2.961c-0.187-0.158-0.63,0.004-0.677-0.085c-0.47-1.073,0.38-2.256,0.508-3.218
			c0.086-0.641-0.449-1.896,0.593-1.861c-0.021,0.444,0.065,0.781,0.252,1.017c0.366,0,0.733,0,1.101,0
			c0.646,0.791,1.575,1.301,1.775,2.538c0.477,0.116,0.74,0.445,0.93,0.848c1.146-0.966,0.772,1.256,1.185,2.116
			c1.144-0.041,1.161-1.21,2.031-1.525c0.078-0.287,0.236-0.495,0.168-0.93c1.239,0.049,2.099-1.002,2.707-1.862
			c0.264-1.486-0.148-1.945-0.422-2.963c-0.142-0.521-0.145-1.128-0.34-1.523c-0.48-0.98-1.643-1.982-2.368-2.707
			c-0.444-0.447-0.682-0.966-1.016-1.355c-0.363-0.426-0.959-0.862-0.93-1.524c0.019-0.412,0.468-1.437,0.762-1.777
			c0.139-0.158,0.428-0.122,0.593-0.253c0.375-0.298,0.492-0.876,0.93-0.932c0.359,0.234,0.96,0.226,1.354,0.424
			c0.277,0.37,0.325,0.973,0.592,1.354c0.354,0.043,0.574-0.048,0.763-0.17c0.062-0.515-0.137-0.767-0.086-1.27
			c1.294-0.364,2.686-0.123,3.215-1.269c0.166,0.672,1.31,0.446,1.353-0.171c2.329-0.632,3.536-2.385,4.736-4.147
			c-0.185-0.994,0.316-1.304,0.508-1.861c0.126-0.364,0.105-0.875,0.254-1.27c0.303-0.809,0.804-2.515,0-3.131
			c-0.345-0.084-0.342,0.009-0.762,0c0.203-0.335,0.584-0.49,0.678-0.933c-0.166-0.95-0.966-1.385-1.522-2.03
			c-0.753-0.873-1.063-2.092-1.946-2.88c-0.426-0.051-0.854-0.103-1.184-0.253c-0.324-0.585,0.435-0.874,0.761-1.269
			c0.276-0.334,0.276-0.65,0.593-0.847c0.425-0.266,1.357-0.11,1.269-0.762c-0.074-0.543-0.562-0.251-1.354-0.423
			c-0.747-0.163-1.044-0.707-1.523-0.424c-0.324,0.098-0.246,0.6-0.591,0.677c-0.731,0.026-0.711-0.7-0.932-1.185
			c-0.544-0.413-1.932,0.015-1.945-0.932c0.696,0.103,0.962-0.224,1.354-0.422c-0.065-0.969,0.739-1.067,0.931-1.778
			c0.551-0.016,0.975,0.097,1.1,0.508c-0.346,0.825,0.067,1.311,0.339,1.947c0.9-0.266,1.474-1.362,2.622-1.271
			c0.478,0.039,0.966,0.345,1.353,0.678c0,0.423,0,0.847,0,1.27c0.604,0.879,2.306,0.215,2.707,1.354
			c-0.055,0.254-0.324,0.295-0.252,0.677c0.799,0.667,0.854,2.077,1.353,3.047c1.151-0.202,2.115-0.591,2.96-1.1
			c-0.153-1.935-1.37-2.805-2.199-4.063c-0.54-0.743-2.1-0.835-2.029-1.862c0.038-0.576,1.182-1.04,1.269-1.692
			c0.064-0.49-0.205-0.932-0.169-1.354c0.056-0.687,0.426-0.934,0.847-1.27c0.583,0.183,0.682,0.539,1.268,0.593
			c1.603,0.144,1.696-0.962,2.03-2.455c0.171-0.764,0.66-1.656,0.761-2.37c0.204-1.461,0.255-2.515,0.339-3.809
			c-0.649-1.24-1.863-1.917-2.115-3.555c1.003,0.735,1.36,1.309,2.115,2.37c0.352,0.496,0.879,0.94,1.1,1.354
			c0.117,0.222,0.12,0.479,0.253,0.679c0.155,0.231,0.504,0.383,0.676,0.677c0.627,1.064,1.063,2.809,2.37,2.793
			c0.006-0.445,0.23-0.672,0.677-0.679c-0.751-1.223-2.282-1.666-2.538-3.384c0.412-0.058,0.561,0.148,0.846,0
			c-0.034-0.869-0.772-1.033-1.438-1.27c-0.82-1.295-1.983-2.247-2.791-3.556c-1.225-0.241-1.231-1.701-2.452-1.946
			c-0.145,0.528,0.233,1.22,0.339,1.777c-0.833-1.121-2.505-1.831-4.229-1.777c-0.281,0.184,0.257,0.455,0,0.592
			c-0.351-0.047-0.811-0.331-1.186-0.084c-0.293-0.299-0.419-0.766-0.677-1.101c-0.49-0.157-1.101-0.197-1.775-0.169
			c0.433-0.751,1.026-1.344,0.929-2.624c0.23-0.393,0.615-0.627,0.51-1.354c0.478-0.086,0.433-0.695,0.591-1.1
			c1.959-0.236,3.635-0.102,5.499-0.17c0.243-0.011,0.146-0.361,0.423-0.339c0.75,0.096,1.396,0.296,2.113,0.424
			c0.162,0.765,1.928,0.419,2.369,0.169c0.454-0.024,1.08,0.121,1.101-0.34c-0.004-0.813-1.216-0.419-1.185-1.268
			c0.302-0.29,0.195-0.99,0.338-1.439c0.968-0.168,1.551,0.14,2.368,0c0.21,0.806,1.047,0.983,1.944,1.101
			c0.33-0.462,0.615-0.966,1.016-1.354c0.029-0.483-0.788-0.562-0.676-0.847c0.476-0.248,0.519,0.418,0.676,0.677
			c0.272,0.446,0.847,0.843,0.932,1.354c-0.177,0.192-0.492,0.243-0.677,0.424c0.018,1.062-0.449,1.565,0.169,2.201
			c-0.341,0.628-1.266,0.592-1.354,1.185c-0.075,0.504,0.753,0.717,0.507,1.524c0.836,1.172,1.876,2.033,2.877,2.963
			c0.543,0.502,0.919,1.088,1.438,1.606c0.437,0.438,1.082,0.759,1.606,1.187c0.503,0.406,0.974,1.095,1.693,1.1
			c0.666-0.847-0.095-1.906-0.254-2.708c0.381-0.014,0.818,0.029,0.846-0.34c-0.054-0.651-0.793-0.617-0.846-1.269
			c0.337,0.026,0.623,0.004,0.76-0.169c0.675-1.265-0.976-1.449-1.269-2.286c0.037-0.162,0.242-0.152,0.17-0.424
			c-0.574-0.638-1.09-1.336-1.775-1.861c-0.637,0.042-1.156-0.029-1.354-0.423c0.055-0.704-0.351-0.947-0.424-1.523
			c0.515-0.088,1.032,0.07,1.269-0.423c0.514,0.078,0.458,0.728,1.1,0.677c0.343-0.052,0.285-0.506,0.424-0.763
			c0.946-0.298,1.575,0.303,2.453,0.339c0.617-0.37,1.102-0.873,1.185-1.777c0.599-0.274,0.873-0.876,1.521-1.101
			c0.711,0.298,2.232,0.295,2.538-0.338c-0.812-1.219-2.967-1.096-3.975-2.117c0.421-0.17,0.617-0.565,0.846-0.93
			c2.504-0.541,4.285,1.803,6.936,1.101c-0.073-0.604-0.31-1.047-0.676-1.354c0.279,0.026,0.52,0.012,0.591-0.17
			c-1.314-1.733-3.662-1.424-5.92-1.946c-1.368-0.317-2.604-1.197-4.062-1.607c-0.889-0.252-1.871-0.188-2.875-0.34
			c-3.288-0.499-6.701-1.529-10.403-1.186c-0.147,0.406,0.311,0.643,0.168,0.762c-2.359-0.771-6.017-0.242-8.627-0.762
			c-0.257-0.307-0.653-0.475-0.931-0.761c-1.121,0.089-2.184-0.477-3.215-0.508c-1.449-0.045-3.212,0.463-4.313,0.084
			c-0.901-0.31-2.277-0.738-3.13-1.016c-0.545-0.177-1.331-0.353-1.945-0.338c-1.999,0.045-4.071-0.422-6.259-0.508
			c-0.23,0.221-0.534,0.368-0.761,0.592c-0.153,0.439,0.582,0.426,0.422,0.593c-1.372-0.349-2.31,0.156-3.299,0.254
			c-0.887,0.088-1.44-0.379-2.452-0.424c-0.135,0.562,0.465,0.83,0.337,1.101c-0.868-0.344-1.517-0.908-2.452-1.185
			c-0.439-1.138-2.143-1.749-3.637-1.609c-0.312,0.03-0.597,0.198-0.931,0.171c-0.987-0.079-1.79-1.012-2.622-0.339
			c-0.313,0.218,0.307,0.406,0.083,0.508c-2.517-0.334-5.473-0.289-7.865-0.593c-0.496-0.062-0.85-0.323-1.354-0.254
			c-0.822,0.113-1.828,1.01-2.96,0.762c0.704-0.819,1.906-1.14,2.622-1.945c-0.675-1.674-3.043-1.28-5.076-1.525
			c-0.666-0.079-1.305-0.447-1.944-0.508c-1.038-0.098-1.595-0.411-2.283-0.506c-1.013-0.142-1.72,0.191-2.368,0.422
			c-0.253,0.146,0.12,0.523-0.085,0.592c-3.094,0.338-6.481,0.611-8.881,1.862c-0.187,0.471,0.418,0.592,0.252,0.763
			c-1.269,0.395-3.531-0.206-4.145,0.846c-0.025,0.592,0.754,0.376,0.677,1.016c-0.933-0.401-2.062,0.022-2.876,0.254
			c-0.531-0.257-0.712-0.867-1.605-0.762c-0.197,0.22,0.002,0.56,0.083,0.762c-0.341-0.001-0.544,0.133-0.676,0.339
			c-0.126,0.999,0.653,1.095,1.016,1.608c-0.041,0.772,0.5,0.965,0.761,1.438c0.323,0.071,0.679,0.11,1.099,0.084
			c-0.114,0.197-0.341,0.281-0.254,0.677c1.455,0.929-0.327,2.986-1.775,2.033c1.509-0.373,1.673-2.443,0.253-3.047
			c-0.364-1.158-0.953-2.094-1.945-2.624c0.221-0.228,0.017-0.748,0-1.017c-0.631-0.805-2.804-0.767-3.552-0.084
			c-0.065,0.458,0.134,0.655,0.084,1.101c-0.54,0.107-0.881,0.415-0.931,1.015c0.592,0.227,0.822,0.814,1.016,1.438
			c0.731,0.201,1.717,0.596,1.945,1.017c-1.518-0.286-3.118-1.46-4.821-1.693c-0.757-0.104-2.015-0.115-2.622,0.34
			c-0.399,0.377,0.437,0.685,0.255,0.845c-1.523-0.503-3.112,0.207-4.822,0.256c-0.905-0.939-1.77,0.084-2.792,0.421
			c-0.885,0.295-1.661,0.265-2.368,0.593c-0.133,0.235-0.003,0.729-0.254,0.848c-0.781-0.007-1.326-0.253-1.776-0.593
			c0.391-0.118,0.836-0.181,1.015-0.508c-0.216-1.192-2.126-0.585-3.045-0.677c0.093,0.617,0.818,0.795,0.34,1.523
			c0.01,0.33,0.641,0.481,0.506,0.677c-1.114-0.091-1.491,0.564-2.029,0.847c-0.469,0.245-1.196,0.061-1.269,0.677
			c-0.131,0.444,0.597,0.471,0.423,0.677c-1.075-0.066-1.722-0.967-2.876-0.677c-0.025,0.257-0.262,0.303-0.169,0.677
			c0.107,0.347,0.916,0.436,0.846,0.679c-0.435-0.186-0.907-0.335-1.438-0.425c-0.016-0.763-1.146-0.764-0.677-1.523
			c-0.233-0.246-0.679-0.28-0.931-0.508c0.687,0.064,1.088,0.411,1.861,0.508c1.815,0.229,4.842-0.361,3.807-1.946
			c-0.348-0.532-2.415-1.309-3.214-1.524c-0.887-0.238-1.982-0.258-2.961-0.508c-1.062-0.269-1.778-0.782-3.046-0.592
			c0.112-0.142,0.226-0.284,0.17-0.592c-1.195-0.684-3.098-0.541-4.313-0.509c-0.765,0.021-1.709-0.264-2.369-0.084
			c-0.388,0.105-0.637,0.678-1.099,0.847c-0.634,0.231-1.083-0.049-1.522,0.338c-0.163-0.287-0.506-0.397-1.016-0.338
			c-0.426,0.673-1.128,1.071-1.606,1.693c-1.166,0.074-1.433,1.048-1.946,1.776c-0.925,0.147-1.11,1.032-1.86,1.354
			c0,0.197,0,0.395,0,0.593c-0.4,0.304-0.938,0.471-1.1,1.015c-0.298,0.012-0.378,0.243-0.677,0.255
			c-0.157,0.874-0.913,0.707-1.438,0.847c-1.302,0.344-2.378,1.531-3.638,1.946c-0.251,1.83,0.498,2.661,0.591,4.147
			c1.455,1.851,3.587-0.406,4.822-0.762c0.252,1.497,1.6,1.898,1.86,3.386c-0.541,0.698-1.295,0.206-1.691,0.93
			c0.295,0.532,0.337,0.595,0.086,1.186c0.016,0.378,0.586,0.203,0.676,0.508c-0.79,0.007-1.76-0.48-1.777-1.523
			c0.552-0.564,0.785-1.848,0.763-2.709c-0.96-0.361-1.02,0.742-1.946,0.678c-0.401,0.472-0.525,1.223-0.761,1.861
			c0.338,0.685,1.192,1.709,0.338,2.371c-0.141-0.199-0.493-0.184-0.845-0.17c-0.282,0.085-0.293,0.441-0.592,0.509
			c-1.112-0.18-1.431,0.746-2.115,0.508c-0.448,1.499-1.705,2.186-3.131,2.708c-0.158,0.291-0.213,0.688-0.337,1.016
			c-0.833,0.142-1.872,1.408-2.622,0.339c-0.275,0.062-0.524,0.152-0.762,0.253c0.007,0.362,0.142,0.593,0.085,1.017
			c-1.048,0.115-2.396-0.465-3.214,0.339c-0.072,0.216,0.24,0.771,0.422,1.015c1.339,0.09,2.179,0.877,2.792,1.777
			c0.755,1.112,0.291,2.714-0.338,3.894c-2.137-0.248-4.571-0.2-6.429-0.508c-0.359,0.46-1.049,0.587-1.438,1.016
			c0.526,1.856-0.069,4.131-0.846,5.587c0.583,0.319,0.549,1.256,0.508,2.2c1.511,0.158,2.841-0.016,3.384,1.355
			c0.739,0.15,1.263-0.347,1.945-0.509c0.523-0.124,1.022,0.069,1.521,0c1.019-0.139,1.386-1.021,2.283-1.354
			c-0.114-0.906,0.614-0.967,0.846-1.524c-0.07-0.322-0.251-0.538-0.338-0.846c0.661-0.498,0.978-1.336,1.522-1.947
			c1.319-0.323,2.81-0.905,2.369-2.707c0.654-1.111,2.379-0.462,3.469-0.171c0.402-0.244,0.729-0.568,1.015-0.93
			c0.824,0.387,0.974-0.595,1.607-0.679c1.859,1.045,2.215,3.595,4.821,3.894c0.696,0.713,1.496,1.324,2.367,1.862
			c0.184,0.786,0.315,1.307-0.085,1.946c-0.385-0.259-0.79,0.111-1.269,0.17c-0.961,0.117-2.206-0.423-2.2,0.423
			c0.006,0.544,1.184,0.701,1.777,1.016c0.38,0.2,0.542,0.606,1.101,0.508c0.018-0.065,0.07-0.098,0.169-0.085
			c0.353-0.425-0.067-1.102,0.338-1.438c0.282-0.064,0.576-0.011,0.846-0.169c0.332-0.195,0.847-1.312,0.847-1.607
			c0-0.516-0.664-0.994-0.085-1.355c0.51,0.139,0.896,0.402,1.353,0.593c0.199-0.027,0.188-0.262,0.34-0.338
			c-0.252-1.556-2.442-1.17-2.877-2.54c-0.934-0.094-1.689-0.495-2.114-1.099c-0.167-0.239-0.105-0.527-0.254-0.764
			c-0.36-0.572-1.182-0.69-1.439-1.354c0.182-0.318,0.146-0.793,0.087-0.931c0.661-0.062,0.887-0.338,1.438-0.339
			c0.076,0.728,1.014,0.86,1.438,1.354c0.547,0.637,0.912,1.497,1.945,1.355c1.01,1.189,2.921,1.479,2.538,4.062
			c0.845,0.904,1.236,2.261,2.198,3.049c0.127,0.549,0.252,1.102,0.424,1.606c0.739,0.215,1.015-0.027,1.691,0.339
			c0.498-0.851-0.325-2.105-0.762-2.285c0.518,0.132,0.687,0.611,1.438,0.508c0.449-0.635-0.052-1.438-0.423-1.777
			c0.543-0.525-0.464-0.982-0.254-1.439c0.662,0.014,0.941-0.356,1.269-0.677c0.821,0.165,1.405,0.42,2.199,0.424
			c-0.234,0.244-0.566,0.392-0.507,0.932c0.438,0.406,0.314,0.964,0.761,1.438c-0.146,0.25-0.55,0.24-0.424,0.763
			c0.62,0.312,1.103,0.76,1.1,1.691c0.471,0.22,0.977-0.037,1.524,0c0.551,0.69,1.985,1.094,2.452,0.085
			c1.393-0.04,1.44,1.267,3.045,1.017c0.465-0.938,1.832-0.547,2.537-0.762c-0.18,0.819,0.066,1.668,0,2.454
			c-0.046,0.548-0.414,0.83-0.591,1.354c-0.347,1.026-0.189,2.341-0.932,3.048c-1.502,0.735-2.412-0.699-3.637-0.594
			c-0.683,0.06-1.193,0.913-1.86,0.931c-0.293,0.008-0.771-0.362-1.354-0.508c-1.144-0.283-1.877-0.342-2.877-0.507
			c-0.574-0.301-1.054-0.695-1.945-0.678c-0.901-1.474-4.027-0.969-4.398,0.678c0.129,0.465,0.428,0.71,0.254,1.27
			c-1.604,0.982-2.42-1.294-4.482-0.932c-0.444-0.588-0.26-1.07-0.677-1.439c-0.691-0.61-1.726-0.223-2.791-0.338
			c-1.157-0.125-1.959-1.026-2.622-1.523c0.337-0.801,1.384-1.841,0.422-2.708c0.358-0.318,0.636-0.809,0.339-1.354
			c-0.604,0.344-0.848-0.288-1.354-0.338c-0.446-0.045-0.646,0.343-1.098,0.422c-1.119,0.198-2.819-0.537-3.553,0.339
			c-0.97-0.811-2.357,0.018-3.723,0.169c-1.3,0.145-2.485,0.116-2.791,1.017c-0.67,0.034-1.031,0.378-1.354,0.761
			c-1.111,0.299-2.025-0.246-3.384,0.084c-0.437-0.239-0.52-0.833-1.1-0.93c-0.707,0.646-1.123,1.583-1.521,2.539
			c-1.2,0.408-1.954,1.263-2.792,2.031c-0.271,0.985-1.147,1.624-0.676,2.879c-0.682,1.688-2.143,2.595-3.977,3.131
			c-0.17,0.393-0.143,0.985-0.252,1.439c-1.479,0.241-2.011,1.49-1.862,3.131c-0.993,0.389-1.685,1.079-1.861,2.286
			c-0.657,0.526-0.877,1.492-0.846,2.707c0.192,0.299,0.372-0.271,0.507,0c0.272,0.651,0.271,1.293,0.086,2.032
			c0.826,1.988-0.433,4.505-1.353,5.841c0.44,0.347,0.861,0.717,0.93,1.438c-0.74,0.808-0.005,2.058,0.507,2.624
			c0.124,0.159,0.408,0.052,0.593,0.169c0.442,0.283,0.734,0.988,1.185,1.524c0.62,0.74,1.313,0.979,1.522,1.946
			c0,0.227,0,0.452,0,0.677c0.326,0.266,0.446,0.739,0.677,1.101c0.933,0.225,1.61,0.702,1.861,1.608
			c0.243,0.236,0.598,0.182,0.846,0.34c0.894,0.571,1.775,2.157,2.96,2.285c1.363,0.146,2.458-1.254,4.145-1.185
			c0.894,0.509,1.687,0.12,2.453,0.677c1.137-0.28,1.933-0.974,2.876-1.271c0.188-0.06,0.469-0.007,0.676-0.085
			c0.462-0.172,0.798-0.576,1.354-0.677c1.103-0.198,2.63-0.101,3.214,0.423c0.524,0.472,0.311,1.159,0.761,1.778
			c0.619,0.85,2.663,0.193,3.553,0.084c0.261,0.36,0.401,0.84,1.015,0.848c0.85,1.15-0.077,2.217-0.17,3.216
			c-0.04,0.436,0.224,0.895,0.17,1.354c-0.072,0.626-0.642,1.174-0.676,1.606c-0.037,0.446,0.352,1.225,0.591,1.609
			c0.876,1.406,2.486,2.559,3.13,4.147c-0.177,1.669,1.249,2.536,1.439,4.317c-0.864,1.1,0.345,2.16,0.506,3.216
			c0.281,1.843-0.972,1.966-1.438,3.047c-0.178,0.412-0.104,1.017-0.253,1.607c-0.366,1.441-1.076,2.674-0.847,4.656
			c1.269,1.862,1.82,4.44,3.384,6.009c-0.584,1.283-0.057,2.527,0.084,3.386c0.31,1.887,0.166,3.184,1.438,4.402
			c0.193,0.184,0.537,0.292,0.762,0.592c0.595,0.788,0.428,2.092,0.932,3.046c0.28,0.535,0.842,0.876,0.761,1.524
			c-0.117,0.305-0.598,0.249-0.592,0.677c0.115,0.681,0.819,0.809,0.507,1.693c0.692,0.28,1.248,0.832,2.029,0.762
			c0.594-0.054,1.164-0.755,1.776-0.254c0.238-0.127,0.36-0.374,0.677-0.423c2.297,0.237,3.754-0.363,5.415-0.762
			c1.339-0.701,2.046-1.813,3.043-2.794c1.23-1.208,1.695-2.924,3.13-3.725c0.331-1.249,1.103-2.373,0.678-3.893
			c0.42-0.713,1.638-0.554,2.2-0.932c1.873-1.26,0.924-4.593,0.421-6.517c0.867-1.023,2.031-1.749,2.792-2.879
			c1.919-0.933,4.153-1.919,4.313-4.485c0.103-1.632-0.647-3.542-0.084-5.248c-0.565-0.934-1.426-1.463-1.353-2.623
			c0.014-0.229,0.183-0.448,0.168-0.677c-0.016-0.245-0.29-0.57-0.255-0.848c0.048-0.358,0.478-0.471,0.424-0.846
			c-0.046-0.331-0.683-0.63-0.762-0.932c-0.301-1.152,0.621-1.746,1.016-2.539c0.681-1.364,0.953-2.79,2.368-3.132
			c-0.027-0.335,0.196-0.424,0.169-0.762c1.155-1.148,1.878-2.854,3.299-3.724c0.748-0.457,1.519-0.757,2.115-1.354
			c2.335-2.337,2.96-5.6,4.821-8.718c0.168-1.227,0.15-2.114,0.254-3.386c-0.751-0.793-1.364,0.278-2.453,0.594
			c-0.903,0.26-1.278,0.146-1.946,0.084c-0.454,0.108-0.505,0.622-0.93,0.762c-0.393-0.059-0.73-0.173-1.1-0.254
			c-1.109,1.027-3.166-0.227-2.537-1.692c-0.765-1.268-1.974-2.09-2.707-3.387c-2.527-0.073-2.197-2.548-3.045-4.232
			c-0.715-0.102-0.905-0.73-1.438-1.015c-0.207-2.455-0.729-5.014-2.368-5.756c-0.8-2.503-2.255-4.799-3.131-6.94
			c0.286,0.446,0.653,0.814,1.353,0.846c0.167-0.257-0.033-0.88,0.256-1.017c0.014,0.263-0.2,0.479,0,0.678
			c0.129,0.153,0.495,0.068,0.507,0.339c0.731,1.725,2.191,2.715,2.707,4.655c0.931,0.501,1.73,1.552,2.029,2.709
			c0.21,0.809,0.138,1.742,0.593,2.37c0.38,0.524,1.08,0.627,1.437,1.016c0.324,0.352,0.782,0.959,0.932,1.438
			c0.062,0.205-0.027,0.457,0.084,0.677c0.458,0.906,1.735,1.367,1.692,2.624c-0.006,0.162-0.275,0.338-0.169,0.593
			c0.412,1.181,0.95,2.307,0.845,3.555c0.832,0.668,2.476,0.474,2.961-0.339c1.107,0.036,1.665-0.478,2.283-0.931
			c0.988,0.372,1.315-0.653,1.945-0.931c1.083-0.477,2.447-0.094,3.047-1.186c0-0.339,0-0.677,0-1.017
			c1.159-0.169,1.945-1.053,3.129-0.93c0.28-0.256,0.254-0.817,0.592-1.017c0.403,0.036,0.61-0.122,0.93-0.169
			c0.246-0.232,0.281-0.679,0.509-0.931c0.45-0.086,0.795-0.275,1.099-0.507c0.158-0.445-0.146-1.108,0.086-1.608
			c0.115-0.139,0.399-0.021,0.592-0.17c0.338-0.261,1.179-2.149,1.099-2.623c-0.119-0.704-1.428-1.704-1.776-2.117
			c-0.36,0.007-0.591,0.143-1.014,0.084c-0.754-0.909-1.495-1.833-1.692-3.3c-0.974,0.271-1.026,1.715-1.862,2.37
			c-0.705,0.554-2.438,0.679-3.298,0c0.454-0.637,0.209-2.056-0.507-2.286c-0.41,0.184-0.464,0.722-0.846,0.931
			c-0.194-0.388-0.003-0.828,0-1.269c-0.391-0.653-0.963-1.125-1.691-1.439c-0.517-0.911-1.767-2.972-0.084-3.217
			c1.692-0.245,1.995,2.123,2.705,3.047c0.198,0.028,0.317,0.134,0.593,0.086c1.137,1.163,3.649,2.327,5.328,1.016
			c0.632,0.27,0.576,1.229,1.015,1.692c2.288,0.369,4.604,1.233,7.19,0.847c1.021-0.153,2.083-0.531,3.214-0.34
			c0.192,0.965,1.084,1.23,1.438,2.032c1.001,0.353,1.368,1.339,2.622,1.438c-0.329,0.037-0.669,0.064-0.931,0.17
			c-0.299,0.749,0.991,1.053,1.438,1.523c0.337,0.354,0.31,0.831,0.762,0.932c0.547,0.12,1.111-0.297,1.69-0.509
			c0.32-0.402-0.08-1.044,0.255-1.354c0.238,0.344-0.065,0.746,0,1.185c0.39,0.547,0.397,1.064,0.337,1.948
			c0.546,1.372,0.479,3.356,1.354,4.401c0.36,1.548,1.376,3.025,2.03,4.824c0.294,0.806,0.708,1.493,1.1,2.286
			c0.416,0.836,0.558,1.814,0.932,2.538c0.157,0.309,0.759,1.082,1.184,1.101c0.973,0.043,1.012-1.438,2.029-1.523
			c-0.234-0.94,0.79-1.054,0.932-1.608c0.107-0.423-0.271-0.98-0.254-1.439c0.026-0.811,0.615-1.617,0.591-2.624
			c-0.022-0.985-0.434-1.652-0.423-2.623c0.793-0.278,1.263-0.88,2.031-1.185c0.115-0.167,0.08-0.483,0.168-0.677
			c0.361-0.218,0.761-0.313,1.101-0.679c0.635-0.681,1.167-1.952,1.775-2.454c0.761-0.625,2.523-0.897,1.692-2.369
			c1.19-0.633,2.372-0.789,3.891-1.017c0.322-0.186,0.558-0.456,0.931-0.593c0.594,1.354,1.423,2.47,2.283,3.556
			c0.178,0.206,0.376-0.075,0.508,0.085c0.763,1.363,1.576,2.896,1.354,4.992c0.555,0.039,0.955,0.231,1.354,0.425
			c0.368-0.45,1.016-0.62,1.607-0.846C264.798,81.432,264.525,80.792,264.75,80.651z"/>
		<path fill-rule="evenodd" fill="#DDDFE1" d="M327.006,135.837c-0.358-0.347-0.37,0.554-0.678,0.255
			c-0.308-0.933-0.766-1.718-1.353-2.37c0.144-1.059-0.443-1.703-1.1-1.692c0.099-1.172-0.611-1.532-0.594-2.624
			c-0.604-0.748-1.461-1.246-2.198-1.862c0.168-1.847-0.362-3.357-0.338-4.994c-0.48-0.454-0.953-1.322-1.691-1.016
			c0.287-0.991-0.171-1.746-0.17-2.708c-0.482-0.532-0.192-1.839-1.015-2.032c-0.394,0.876-0.685,1.856-1.184,2.624
			c-0.141,1.523-1.046,3.509-1.438,4.825c-0.365,1.22-0.646,1.872-1.86,1.27c-0.136-0.231-0.316-0.418-0.424-0.678
			c-0.948-0.207-1.307-1.006-2.114-1.354c-0.23-0.56-0.676-0.904-1.185-1.185c0.099-0.523,0.621-0.621,0.509-1.354
			c0.69-0.398,1.88-1.774,0.761-2.455c-0.423-0.111-0.36,0.261-0.678,0.254c-0.076-0.148-0.156-0.295-0.423-0.254
			c-1.055,0.025-2.468-0.284-3.13-0.931c-0.481-0.002-0.511,0.064-0.93,0c0.019,0.545,0.567,0.56,0.423,1.27
			c-1.348-0.122-2.656,0.026-2.791,1.523c-0.77,0.133-0.88,0.927-1.269,1.439c-0.034,0.264,0.427,0.467,0.254,0.592
			c-0.568,0.08-0.895-0.313-1.353-0.084c-0.154-2.324-3.598-1.155-3.639,0.337c-0.553-0.017-0.905,0.166-1.185,0.424
			c-0.089,0.429,0.193,0.484,0.169,0.847c-0.303-0.04-0.488-0.138-0.761,0c-0.667,0.279,0.111,1.245-0.424,1.438
			c-0.256-0.306-0.314-0.813-0.76-0.931c-0.653,0.447-1.179,1.021-1.016,2.286c-1.279,0.699-1.605,2.693-3.807,2.199
			c-0.555,0.544-1.845,0.356-2.199,1.101c-1.93-0.157-3.02,1.384-4.061,2.116c-0.061-0.172-0.254-0.345-0.422-0.17
			c-0.156,1.957-1.729,3.132-0.762,5.249c-0.299-0.067-0.13-0.604-0.591-0.509c-0.156,0.229-0.059,0.243-0.425,0.17
			c-0.26,1.322,0.665,2.545,0.763,3.978c0.086,1.27-0.381,2.727,0.253,3.893c-0.378,0.581-0.636,1.284-0.931,1.949
			c-0.493,0.294-0.977,0.603-1.015,1.354c0.681,0.216,0.66,0.876,1.099,1.185c1.591,1.118,2.894-0.761,3.976-1.27
			c1.315-0.617,2.564,0.056,4.23-0.169c0.494-0.267,0.896-0.628,1.185-1.1c1.055,0.074,1.956-0.829,3.129-1.017
			c0.691-0.111,1.425-0.043,2.114-0.255c1.155-0.354,2.66-1.071,3.806-0.678c0.436,0.725,1.727,0.587,2.2,1.272
			c-0.097,0.604,0.3,0.715,0.424,1.098c-0.246,0.964-0.019,1.823,0.676,1.778c0.187-0.012,0.553-0.477,0.931-0.762
			c0.691-0.521,1.365-0.817,1.691-1.101c-0.371,1.011-1.536,1.228-1.777,2.371c0.496,0.188,1.212-0.069,1.524-0.34
			c-0.111,0.256-0.274,0.46-0.254,0.847c0.146,0.191,0.598,0.079,0.677,0.339c0.343,1.08-0.526,1.857,0,2.708
			c0.309,0.5,2.7,1.192,3.299,1.102c0.68-0.104,1.117-0.946,1.691-0.847c0.036,0.613,0.634,0.663,0.846,1.101
			c1.297-0.058,1.835-0.874,2.707-1.355c0.837-0.008,1.475-0.217,2.198-0.338c0.97-0.978,1.313-2.579,2.622-3.216
			c0.681-1.83,2.312-2.711,3.723-3.81c-0.041-0.267,0.12-0.331,0.168-0.508c0.6-0.418,1.272-0.759,1.271-1.777
			c0.826-1.12,1.446-2.444,1.944-3.894C325.92,138.388,326.685,136.899,327.006,135.837z"/>
	</g>
	<path fill-rule="evenodd" fill="#424346" d="M162.477,21.219c-2.865,0-5.188,2.326-5.188,5.195c0,2.569,1.866,4.689,4.312,5.108
		v7.391c0,0.484,0.393,0.877,0.875,0.877c0.484,0,0.875-0.393,0.875-0.877v-7.391c2.446-0.419,4.312-2.539,4.312-5.108
		C167.664,23.545,165.342,21.219,162.477,21.219z M161.029,27.103c-0.967,0-1.75-0.784-1.75-1.752c0-0.969,0.783-1.753,1.75-1.753
		s1.75,0.784,1.75,1.753C162.779,26.318,161.996,27.103,161.029,27.103z"/>
	<path fill-rule="evenodd" fill="#424346" d="M28.146,36.722c-2.865,0-5.188,2.326-5.188,5.196c0,2.569,1.866,4.688,4.312,5.107
		v7.392c0,0.483,0.393,0.876,0.875,0.876c0.484,0,0.875-0.393,0.875-0.876v-7.392c2.446-0.419,4.312-2.538,4.312-5.107
		C33.333,39.048,31.011,36.722,28.146,36.722z M26.698,42.606c-0.967,0-1.75-0.785-1.75-1.753c0-0.969,0.783-1.753,1.75-1.753
		s1.75,0.784,1.75,1.753C28.448,41.821,27.665,42.606,26.698,42.606z"/>
	<path fill-rule="evenodd" fill="#3892F5" d="M58.977,37.244c-2.865,0-5.188,2.325-5.188,5.195c0,2.569,1.866,4.688,4.312,5.107
		v7.392c0,0.484,0.393,0.876,0.875,0.876c0.484,0,0.875-0.392,0.875-0.876v-7.392c2.446-0.419,4.312-2.538,4.312-5.107
		C64.164,39.569,61.842,37.244,58.977,37.244z M57.529,43.128c-0.967,0-1.75-0.784-1.75-1.753c0-0.968,0.783-1.753,1.75-1.753
		s1.75,0.785,1.75,1.753C59.279,42.344,58.496,43.128,57.529,43.128z"/>
	<path fill-rule="evenodd" fill="#424346" d="M280.594,50.488c-2.865,0-5.188,2.326-5.188,5.195c0,2.569,1.866,4.689,4.312,5.107
		v7.392c0,0.484,0.393,0.877,0.875,0.877c0.484,0,0.875-0.393,0.875-0.877v-7.392c2.446-0.418,4.312-2.538,4.312-5.107
		C285.781,52.814,283.459,50.488,280.594,50.488z M279.146,56.372c-0.967,0-1.75-0.784-1.75-1.753c0-0.968,0.783-1.752,1.75-1.752
		s1.75,0.784,1.75,1.752C280.896,55.588,280.113,56.372,279.146,56.372z"/>
</g>
</svg>
